# Blender 5.0.1
# www.blender.org
mtllib car1.mtl
o Cube
v 1.004769 0.255516 1.929450
v 0.997495 0.289249 1.929450
v 1.004769 0.255516 1.622916
v 0.997495 0.289249 1.622916
v 0.792609 0.208820 1.622916
v 0.792609 0.243328 1.622916
v 0.792609 0.208820 1.929450
v 0.792609 0.243328 1.929450
v 0.399589 0.243328 1.622916
v 0.399589 0.208820 1.929450
v 0.399589 0.208820 1.622916
v 0.399589 0.243328 1.929450
v 0.308964 0.208820 1.622916
v 0.308964 0.243328 1.929450
v 0.308964 0.243328 1.622916
v 0.308964 0.208820 1.929450
v 0.308964 0.035312 1.929450
v 0.399589 0.035312 1.929450
v 0.399589 0.035312 1.622916
v 0.308964 0.035312 1.622916
v -0.031800 0.243328 1.622916
v -0.031800 0.208820 1.929450
v -0.031800 0.208820 1.622916
v -0.031800 0.243328 1.929450
v -1.002505 0.255516 1.929450
v -0.995231 0.289249 1.929450
v -1.002505 0.255516 1.622916
v -0.995231 0.289249 1.622916
v -0.790344 0.208820 1.622916
v -0.790344 0.243328 1.622916
v -0.790344 0.208820 1.929450
v -0.790344 0.243328 1.929450
v -0.397324 0.243328 1.622916
v -0.397324 0.208820 1.929450
v -0.397324 0.208820 1.622916
v -0.397324 0.243328 1.929450
v -0.306699 0.208820 1.622916
v -0.306699 0.243328 1.929450
v -0.306699 0.243328 1.622916
v -0.306699 0.208820 1.929450
v -0.306699 0.035312 1.929450
v -0.397324 0.035312 1.929450
v -0.397324 0.035312 1.622916
v -0.306699 0.035312 1.622916
v 0.034064 0.243328 1.622916
v 0.034064 0.208820 1.929450
v 0.034064 0.208820 1.622916
v 0.034064 0.243328 1.929450
vn -0.0000 -0.0000 -1.0000
vn 0.9775 0.2108 -0.0000
vn 0.2150 -0.9766 -0.0000
vn -0.2187 0.9758 -0.0000
vn -0.0000 -1.0000 -0.0000
vn -0.0000 -0.0000 1.0000
vn -0.0000 1.0000 -0.0000
vn -1.0000 -0.0000 -0.0000
vn 1.0000 -0.0000 -0.0000
vn -0.9775 0.2108 -0.0000
vn -0.2150 -0.9766 -0.0000
vn 0.2187 0.9758 -0.0000
s 1
usemtl Material.002
f 5//1 6//1 4//1 3//1
f 3//2 4//2 2//2 1//2
f 5//3 3//3 1//3 7//3
f 4//4 6//4 8//4 2//4
f 11//5 5//5 7//5 10//5
f 1//6 2//6 8//6 7//6
f 11//1 9//1 6//1 5//1
f 7//6 8//6 12//6 10//6
f 6//7 9//7 12//7 8//7
f 13//1 15//1 9//1 11//1
f 10//6 16//6 17//6 18//6
f 23//5 13//5 16//5 22//5
f 23//1 21//1 15//1 13//1
f 10//6 12//6 14//6 16//6
f 9//7 15//7 14//7 12//7
f 20//5 19//5 18//5 17//5
f 16//8 13//8 20//8 17//8
f 13//1 11//1 19//1 20//1
f 11//9 10//9 18//9 19//9
f 16//6 14//6 24//6 22//6
f 15//7 21//7 24//7 14//7
f 29//1 27//1 28//1 30//1
f 27//10 25//10 26//10 28//10
f 29//11 31//11 25//11 27//11
f 28//12 26//12 32//12 30//12
f 35//5 34//5 31//5 29//5
f 25//6 31//6 32//6 26//6
f 35//1 29//1 30//1 33//1
f 31//6 34//6 36//6 32//6
f 30//7 32//7 36//7 33//7
f 37//1 35//1 33//1 39//1
f 34//6 42//6 41//6 40//6
f 47//5 46//5 40//5 37//5
f 47//1 37//1 39//1 45//1
f 34//6 40//6 38//6 36//6
f 33//7 36//7 38//7 39//7
f 44//5 41//5 42//5 43//5
f 40//9 41//9 44//9 37//9
f 37//1 44//1 43//1 35//1
f 35//8 43//8 42//8 34//8
f 40//6 46//6 48//6 38//6
f 39//7 38//7 48//7 45//7
o Cylinder
v -0.949560 -0.578377 -1.129417
v 0.916835 -0.578377 -1.129417
v -0.949560 -0.595009 -1.127779
v 0.916835 -0.595009 -1.127779
v -0.949560 -0.611001 -1.122927
v 0.916835 -0.611001 -1.122927
v -0.949560 -0.625740 -1.115049
v 0.916835 -0.625740 -1.115049
v -0.949560 -0.638659 -1.104447
v 0.916835 -0.638659 -1.104447
v -0.949560 -0.649261 -1.091528
v 0.916835 -0.649261 -1.091528
v -0.949560 -0.657139 -1.076789
v 0.916835 -0.657139 -1.076789
v -0.949560 -0.661991 -1.060797
v 0.916835 -0.661990 -1.060797
v -0.949560 -0.663629 -1.044165
v 0.916835 -0.663629 -1.044165
v -0.949560 -0.661991 -1.027533
v 0.916835 -0.661990 -1.027533
v -0.949560 -0.657139 -1.011540
v 0.916835 -0.657139 -1.011540
v -0.949560 -0.649261 -0.996801
v 0.916835 -0.649261 -0.996801
v -0.949560 -0.638659 -0.983883
v 0.916835 -0.638659 -0.983883
v -0.949560 -0.625740 -0.973280
v 0.916835 -0.625740 -0.973280
v -0.949560 -0.611001 -0.965402
v 0.916835 -0.611001 -0.965402
v -0.949560 -0.595009 -0.960551
v 0.916835 -0.595009 -0.960551
v -0.949560 -0.578377 -0.958913
v 0.916835 -0.578377 -0.958913
v -0.949560 -0.561745 -0.960551
v 0.916835 -0.561745 -0.960551
v -0.949560 -0.545752 -0.965402
v 0.916835 -0.545752 -0.965402
v -0.949560 -0.531013 -0.973280
v 0.916835 -0.531013 -0.973280
v -0.949560 -0.518095 -0.983883
v 0.916835 -0.518095 -0.983883
v -0.949560 -0.507493 -0.996801
v 0.916835 -0.507492 -0.996801
v -0.949560 -0.499614 -1.011540
v 0.916835 -0.499614 -1.011540
v -0.949560 -0.494763 -1.027533
v 0.916835 -0.494763 -1.027533
v -0.949560 -0.493125 -1.044165
v 0.916835 -0.493125 -1.044165
v -0.949560 -0.494763 -1.060797
v 0.916835 -0.494763 -1.060797
v -0.949560 -0.499614 -1.076789
v 0.916835 -0.499614 -1.076789
v -0.949560 -0.507493 -1.091528
v 0.916835 -0.507492 -1.091528
v -0.949560 -0.518095 -1.104447
v 0.916835 -0.518095 -1.104447
v -0.949560 -0.531014 -1.115049
v 0.916835 -0.531013 -1.115049
v -0.949560 -0.545752 -1.122927
v 0.916835 -0.545752 -1.122927
v -0.949560 -0.561745 -1.127779
v 0.916835 -0.561745 -1.127779
v -1.105423 -0.597018 -1.314644
v 1.087272 -0.597018 -1.314644
v -1.105423 -0.651118 -1.309315
v 1.087272 -0.651118 -1.309315
v -1.105423 -0.703139 -1.293535
v 1.087272 -0.703139 -1.293535
v -1.105423 -0.751082 -1.267909
v 1.087272 -0.751082 -1.267909
v -1.105423 -0.793104 -1.233422
v 1.087272 -0.793104 -1.233422
v -1.105423 -0.827591 -1.191400
v 1.087272 -0.827590 -1.191400
v -1.105423 -0.853217 -1.143457
v 1.087272 -0.853216 -1.143457
v -1.105423 -0.868997 -1.091436
v 1.087272 -0.868997 -1.091436
v -1.105423 -0.874325 -1.037336
v 1.087272 -0.874325 -1.037336
v -1.105423 -0.868997 -0.983236
v 1.087272 -0.868997 -0.983236
v -1.105423 -0.853217 -0.931215
v 1.087272 -0.853216 -0.931215
v -1.105423 -0.827591 -0.883273
v 1.087272 -0.827590 -0.883273
v -1.105423 -0.793104 -0.841250
v 1.087272 -0.793104 -0.841250
v -1.105423 -0.751082 -0.806764
v 1.087272 -0.751082 -0.806764
v -1.105423 -0.703139 -0.781138
v 1.087272 -0.703139 -0.781138
v -1.105423 -0.651118 -0.765357
v 1.087272 -0.651118 -0.765357
v -1.105423 -0.597018 -0.760029
v 1.087272 -0.597018 -0.760029
v -1.105423 -0.542917 -0.765357
v 1.087272 -0.542917 -0.765357
v -1.105423 -0.490897 -0.781138
v 1.087272 -0.490897 -0.781138
v -1.105423 -0.442954 -0.806764
v 1.087272 -0.442954 -0.806764
v -1.105423 -0.400932 -0.841250
v 1.087272 -0.400932 -0.841250
v -1.105423 -0.366445 -0.883273
v 1.087272 -0.366445 -0.883273
v -1.105423 -0.340819 -0.931216
v 1.087272 -0.340819 -0.931216
v -1.105423 -0.325039 -0.983237
v 1.087272 -0.325039 -0.983237
v -1.105423 -0.319710 -1.037337
v 1.087272 -0.319710 -1.037337
v -1.105423 -0.325039 -1.091437
v 1.087272 -0.325039 -1.091437
v -1.105423 -0.340819 -1.143458
v 1.087272 -0.340819 -1.143458
v -1.105423 -0.366445 -1.191400
v 1.087272 -0.366445 -1.191400
v -1.105423 -0.400932 -1.233423
v 1.087272 -0.400932 -1.233423
v -1.105423 -0.442955 -1.267909
v 1.087272 -0.442954 -1.267909
v -1.105423 -0.490897 -1.293535
v 1.087272 -0.490897 -1.293535
v -1.105423 -0.542918 -1.309315
v 1.087272 -0.542918 -1.309315
v -0.869116 -0.340819 -1.143458
v -0.869116 -0.366445 -1.191400
v -0.869116 -0.651118 -1.309315
v -0.869116 -0.325039 -1.091437
v -0.869116 -0.751082 -0.806764
v -0.869116 -0.703139 -0.781138
v -0.869116 -0.651118 -0.765357
v -0.869116 -0.490897 -0.781138
v -0.869116 -0.319710 -1.037337
v -0.869116 -0.490897 -1.293535
v -0.869116 -0.442954 -0.806764
v -0.869116 -0.793104 -0.841250
v -0.869116 -0.400932 -1.233423
v -0.869116 -0.442955 -1.267909
v -0.869116 -0.597018 -0.760029
v -0.869116 -0.597018 -1.314644
v -0.869116 -0.340819 -0.931216
v -0.869116 -0.366445 -0.883273
v -0.869116 -0.325039 -0.983237
v -0.869116 -0.400932 -0.841250
v -0.869116 -0.542917 -0.765357
v -0.869116 -0.827591 -0.883273
v -0.869116 -0.542918 -1.309315
v -0.869116 -0.703139 -1.293535
v -0.869116 -0.793104 -1.233422
v -0.869116 -0.827591 -1.191400
v -0.869116 -0.868997 -0.983236
v -0.869116 -0.853217 -0.931215
v -0.869116 -0.874325 -1.037336
v -0.869116 -0.868997 -1.091436
v -0.869116 -0.751082 -1.267909
v -0.869116 -0.853217 -1.143457
v 0.841039 -0.703139 -1.293535
v 0.841039 -0.793104 -1.233422
v 0.841039 -0.751082 -0.806764
v 0.841039 -0.703139 -0.781138
v 0.841039 -0.827591 -1.191400
v 0.841039 -0.651118 -0.765357
v 0.841040 -0.490897 -0.781138
v 0.841040 -0.442954 -0.806764
v 0.841039 -0.868997 -0.983236
v 0.841039 -0.793104 -0.841250
v 0.841039 -0.853217 -0.931215
v 0.841039 -0.874325 -1.037336
v 0.841040 -0.597018 -0.760029
v 0.841039 -0.868997 -1.091436
v 0.841039 -0.751082 -1.267909
v 0.841039 -0.853217 -1.143457
v 0.841040 -0.542917 -0.765357
v 0.841039 -0.827591 -0.883273
v 0.841040 -0.340819 -1.143458
v 0.841040 -0.366445 -1.191400
v 0.841039 -0.651118 -1.309315
v 0.841040 -0.325039 -1.091437
v 0.841040 -0.319710 -1.037337
v 0.841040 -0.490897 -1.293535
v 0.841040 -0.400932 -1.233423
v 0.841040 -0.442954 -1.267909
v 0.841040 -0.597018 -1.314644
v 0.841040 -0.340819 -0.931216
v 0.841040 -0.366445 -0.883273
v 0.841040 -0.325039 -0.983237
v 0.841040 -0.400932 -0.841250
v 0.841040 -0.542918 -1.309315
v 0.352094 -0.364100 -1.901221
v 0.352094 -0.195809 -1.901221
v -0.352096 -0.364100 -1.901221
v -0.352096 -0.195809 -1.901221
v 0.352094 -0.364100 -1.938161
v 0.352094 -0.195809 -1.938161
v -0.352096 -0.364100 -1.938161
v -0.352096 -0.195809 -1.938161
v -0.673562 0.662202 1.000001
v -0.673562 0.662201 -0.284821
v 0.673560 0.662202 1.000001
v 0.673560 0.662201 -0.284821
v -0.705127 0.581518 1.114664
v 0.705125 0.581518 1.114664
v -1.000001 0.021482 1.629602
v 0.999999 0.021482 1.629602
v -1.000001 0.021482 1.855769
v 0.999999 0.021482 1.855769
v -1.000001 0.002038 1.984134
v 0.999999 0.002038 1.984134
v -1.000001 -0.101877 1.984134
v 0.999999 -0.101877 1.984134
v -1.000001 -0.101877 1.916896
v 0.999999 -0.101877 1.916896
v -1.000001 -0.218017 1.923008
v 0.999999 -0.218017 1.923008
v -1.000001 -0.218017 1.978022
v 0.999999 -0.218017 1.978022
v -1.000001 -0.474748 1.892445
v 0.999999 -0.474748 1.892445
v -1.000001 -0.578662 1.898557
v 0.999999 -0.578662 1.898557
v -1.000001 -0.590887 1.128366
v 0.999999 -0.590887 1.128366
v -1.000001 -0.419734 1.068668
v 0.999999 -0.419734 1.068668
v -1.000001 -0.334018 0.969437
v 0.999999 -0.334064 0.969437
v -1.000001 -0.299900 0.802644
v 0.999999 -0.298337 0.802691
v -1.000001 -0.366572 0.621018
v 0.999999 -0.367709 0.621018
v -1.000001 -0.444185 0.573918
v 0.999999 -0.444185 0.573918
v -1.000001 -0.597001 0.532693
v 0.999999 -0.597001 0.532693
v -1.000001 -0.597001 -0.735986
v 0.999999 -0.597001 -0.735986
v -1.000001 -0.431960 -0.778775
v 0.999999 -0.431960 -0.778775
v -1.000001 -0.328045 -0.888802
v 0.999999 -0.328045 -0.888802
v -1.000001 -0.301606 -1.053843
v 0.999999 -0.301606 -1.053843
v -1.000001 -0.334301 -1.202820
v 0.999999 -0.334300 -1.202820
v -1.000001 -0.438072 -1.296784
v 0.999999 -0.438072 -1.296784
v -1.000001 -0.590888 -1.333460
v 0.999999 -0.590888 -1.333460
v -1.000001 -0.584775 -1.805697
v 0.999999 -0.584776 -1.805697
v -1.000001 -0.468635 -1.915724
v 0.999999 -0.468635 -1.915724
v -1.000001 -0.107990 -1.915724
v 0.999999 -0.107990 -1.915724
v -1.000001 -0.076321 -1.817922
v 0.999999 -0.076321 -1.817922
v -1.000001 0.107058 -0.986604
v 0.999999 0.107058 -0.986604
v -1.000001 0.132527 -0.777756
v 0.999999 0.132527 -0.777756
v -0.883158 0.130612 1.589134
v 0.883155 0.130612 1.589134
v 0.883155 0.211803 -0.754994
v -0.883158 0.225358 -0.754994
v -0.407442 -0.597001 -0.735986
v -0.407442 -0.431960 -0.778775
v -0.407442 -0.328045 -0.888802
v -0.407442 -0.301606 -1.053843
v -0.407442 -0.334301 -1.202820
v -0.407442 -0.438072 -1.296784
v -0.828196 -0.635849 1.222320
v -0.828196 -0.635849 -1.476291
v 0.817254 -0.635849 1.222320
v 0.817254 -0.635849 -1.476291
v 0.868506 0.163775 -0.482714
v 0.857036 0.203214 -0.482714
v 0.889589 0.169906 -0.548183
v 0.878119 0.209346 -0.548183
v 1.132200 0.240463 -0.390611
v 1.112916 0.306769 -0.390611
v 1.153283 0.246595 -0.456080
v 1.134000 0.312901 -0.456080
v 0.984147 0.197406 -0.515155
v 0.964864 0.263712 -0.515155
v 0.963063 0.191274 -0.449687
v 0.943780 0.257580 -0.449687
v 0.988339 0.309144 -0.503340
v 0.999238 0.193042 -0.437871
v 1.020321 0.199174 -0.503340
v 0.967256 0.303012 -0.437871
v 1.103352 0.342593 -0.463169
v 1.114251 0.226491 -0.397700
v 1.135334 0.232622 -0.463169
v 1.082268 0.336461 -0.397700
v -0.872259 0.163775 -0.482714
v -0.860789 0.203214 -0.482714
v -0.893342 0.169906 -0.548183
v -0.881873 0.209346 -0.548182
v -1.135953 0.240464 -0.390611
v -1.116670 0.306769 -0.390611
v -1.157037 0.246595 -0.456080
v -1.137753 0.312901 -0.456080
v -0.987900 0.197406 -0.515155
v -0.968617 0.263712 -0.515155
v -0.966817 0.191274 -0.449687
v -0.947533 0.257580 -0.449687
v -0.992092 0.309144 -0.503340
v -1.002991 0.193042 -0.437871
v -1.024075 0.199174 -0.503340
v -0.971009 0.303012 -0.437871
v -1.107105 0.342593 -0.463169
v -1.118004 0.226491 -0.397700
v -1.139087 0.232622 -0.463169
v -1.086022 0.336461 -0.397700
v 0.352094 -0.365724 1.959164
v 0.352094 -0.205448 2.010479
v -0.352096 -0.365724 1.959164
v -0.352096 -0.205448 2.010479
v 0.352094 -0.354460 1.923983
v 0.352094 -0.194184 1.975299
v -0.352096 -0.354460 1.923983
v -0.352096 -0.194184 1.975299
v -1.105423 -0.597018 0.552495
v 1.087272 -0.597018 0.552495
v -1.105423 -0.651118 0.557824
v 1.087272 -0.651118 0.557824
v -1.105423 -0.703139 0.573604
v 1.087272 -0.703139 0.573604
v -1.105423 -0.751082 0.599230
v 1.087272 -0.751082 0.599230
v -1.105423 -0.793104 0.633717
v 1.087272 -0.793104 0.633717
v -1.105423 -0.827591 0.675739
v 1.087272 -0.827591 0.675739
v -1.105423 -0.853217 0.723682
v 1.087272 -0.853217 0.723682
v -1.105423 -0.868997 0.775703
v 1.087272 -0.868997 0.775703
v -1.105423 -0.874325 0.829803
v 1.087272 -0.874324 0.829803
v -1.105423 -0.868996 0.883903
v 1.087272 -0.868996 0.883903
v -1.105423 -0.853216 0.935924
v 1.087272 -0.853216 0.935924
v -1.105423 -0.827590 0.983866
v 1.087272 -0.827590 0.983866
v -1.105423 -0.793103 1.025889
v 1.087272 -0.793103 1.025889
v -1.105423 -0.751081 1.060375
v 1.087272 -0.751081 1.060375
v -1.105423 -0.703138 1.086001
v 1.087272 -0.703138 1.086001
v -1.105423 -0.651117 1.101782
v 1.087272 -0.651117 1.101782
v -1.105423 -0.597017 1.107110
v 1.087272 -0.597017 1.107110
v -1.105423 -0.542917 1.101782
v 1.087272 -0.542917 1.101782
v -1.105423 -0.490896 1.086001
v 1.087272 -0.490896 1.086001
v -1.105423 -0.442953 1.060375
v 1.087272 -0.442953 1.060375
v -1.105423 -0.400931 1.025888
v 1.087272 -0.400931 1.025888
v -1.105423 -0.366444 0.983866
v 1.087272 -0.366444 0.983866
v -1.105423 -0.340818 0.935923
v 1.087272 -0.340818 0.935923
v -1.105423 -0.325038 0.883902
v 1.087272 -0.325038 0.883902
v -1.105423 -0.319710 0.829802
v 1.087272 -0.319710 0.829802
v -1.105423 -0.325038 0.775702
v 1.087272 -0.325038 0.775702
v -1.105423 -0.340820 0.723681
v 1.087272 -0.340819 0.723681
v -1.105423 -0.366446 0.675739
v 1.087272 -0.366446 0.675739
v -1.105423 -0.400933 0.633716
v 1.087272 -0.400932 0.633716
v -1.105423 -0.442955 0.599230
v 1.087272 -0.442955 0.599230
v -1.105423 -0.490898 0.573604
v 1.087272 -0.490897 0.573604
v -1.105423 -0.542919 0.557824
v 1.087272 -0.542917 0.557824
v -0.869116 -0.340820 0.723681
v -0.869116 -0.366446 0.675739
v -0.869116 -0.325038 0.775702
v -0.869116 -0.751081 1.060375
v -0.869116 -0.703138 1.086001
v -0.869116 -0.651117 1.101782
v -0.869116 -0.490896 1.086001
v -0.869116 -0.319710 0.829802
v -0.869116 -0.490898 0.573604
v -0.869116 -0.442953 1.060375
v -0.869116 -0.400932 0.633716
v -0.869116 -0.442955 0.599230
v -0.869116 -0.597017 1.107110
v -0.869116 -0.340818 0.935923
v -0.869116 -0.366444 0.983866
v -0.869116 -0.325038 0.883902
v -0.869116 -0.400931 1.025888
v -0.869116 -0.542917 1.101782
v -0.869116 -0.542919 0.557824
v -0.869116 -0.703139 0.573604
v -0.869116 -0.651118 0.557824
v -0.869116 -0.793104 0.633717
v -0.869116 -0.827591 0.675739
v -0.869116 -0.868996 0.883903
v -0.869116 -0.793103 1.025889
v -0.869116 -0.853216 0.935924
v -0.869116 -0.874325 0.829803
v -0.869116 -0.597018 0.552495
v -0.869116 -0.868997 0.775703
v -0.869116 -0.751082 0.599230
v -0.869116 -0.853217 0.723682
v -0.869116 -0.827590 0.983866
v 0.841039 -0.793104 0.633717
v 0.841039 -0.751081 1.060375
v 0.841039 -0.703138 1.086001
v 0.841039 -0.827591 0.675739
v 0.841039 -0.651117 1.101782
v 0.841039 -0.868996 0.883903
v 0.841039 -0.793103 1.025889
v 0.841039 -0.853216 0.935924
v 0.841039 -0.874324 0.829803
v 0.841040 -0.597017 1.107110
v 0.841039 -0.868997 0.775703
v 0.841039 -0.853217 0.723682
v 0.841040 -0.542917 1.101782
v 0.841039 -0.827590 0.983866
v 0.841040 -0.340820 0.723681
v 0.841040 -0.366446 0.675739
v 0.841039 -0.703139 0.573604
v 0.841039 -0.651118 0.557824
v 0.841040 -0.325038 0.775702
v 0.841040 -0.490896 1.086001
v 0.841040 -0.319710 0.829802
v 0.841040 -0.490897 0.573604
v 0.841040 -0.442953 1.060375
v 0.841040 -0.400932 0.633716
v 0.841040 -0.442955 0.599230
v 0.841040 -0.597018 0.552495
v 0.841039 -0.751082 0.599230
v 0.841040 -0.340818 0.935923
v 0.841040 -0.366444 0.983866
v 0.841040 -0.325038 0.883902
v 0.841040 -0.400931 1.025888
v 0.841040 -0.542917 0.557824
v -0.828196 -0.583523 1.222320
v -0.828196 -0.583523 -1.476291
v 0.817254 -0.583523 -1.476291
v 0.817254 -0.583523 1.222320
v -0.884054 0.185416 -0.986604
v 0.894179 0.185416 -0.986604
v 0.906825 0.002037 -1.817922
v 0.901652 -0.107990 -1.915724
v -0.902482 0.002037 -1.817922
v -0.910016 -0.107990 -1.915724
v 0.868482 0.099840 1.629602
v 0.893282 0.099840 1.855769
v 0.904046 0.002038 1.984134
v -0.893059 0.099840 1.629602
v -0.886864 0.099840 1.855769
v -0.898723 0.002038 1.984134
v 0.715529 0.597827 -0.354107
v -0.715531 0.597827 -0.354107
v 0.673560 0.662201 0.552218
v 0.673560 0.662201 0.425337
v 0.710327 0.581113 0.123033
v 0.712928 0.589470 -0.283020
v -0.949560 -0.578377 0.748953
v 0.916835 -0.578377 0.748953
v -0.949560 -0.595008 0.750591
v 0.916835 -0.595008 0.750591
v -0.949560 -0.611001 0.755442
v 0.916835 -0.611001 0.755442
v -0.949560 -0.625741 0.763321
v 0.916835 -0.625740 0.763321
v -0.949560 -0.638659 0.773923
v 0.916835 -0.638659 0.773923
v -0.949560 -0.649261 0.786841
v 0.916835 -0.649261 0.786841
v -0.949560 -0.657139 0.801580
v 0.916835 -0.657138 0.801580
v -0.949560 -0.661990 0.817573
v 0.916835 -0.661990 0.817573
v -0.949560 -0.663628 0.834205
v 0.916835 -0.663628 0.834205
v -0.949560 -0.661990 0.850837
v 0.916835 -0.661990 0.850837
v -0.949560 -0.657139 0.866829
v 0.916835 -0.657138 0.866829
v -0.949560 -0.649260 0.881568
v 0.916835 -0.649260 0.881568
v -0.949560 -0.638658 0.894487
v 0.916835 -0.638658 0.894487
v -0.949560 -0.625740 0.905089
v 0.916835 -0.625739 0.905089
v -0.949560 -0.611001 0.912967
v 0.916835 -0.611000 0.912967
v -0.949560 -0.595008 0.917818
v 0.916835 -0.595008 0.917818
v -0.949560 -0.578376 0.919457
v 0.916835 -0.578376 0.919457
v -0.949560 -0.561744 0.917818
v 0.916835 -0.561744 0.917818
v -0.949560 -0.545752 0.912967
v 0.916835 -0.545751 0.912967
v -0.949560 -0.531013 0.905089
v 0.916835 -0.531013 0.905089
v -0.949560 -0.518094 0.894487
v 0.916835 -0.518094 0.894487
v -0.949560 -0.507492 0.881568
v 0.916835 -0.507492 0.881568
v -0.949560 -0.499614 0.866829
v 0.916835 -0.499614 0.866829
v -0.949560 -0.494762 0.850837
v 0.916835 -0.494762 0.850837
v -0.949560 -0.493124 0.834205
v 0.916835 -0.493124 0.834205
v -0.949560 -0.494762 0.817573
v 0.916835 -0.494762 0.817573
v -0.949560 -0.499614 0.801580
v 0.916835 -0.499614 0.801580
v -0.949560 -0.507493 0.786841
v 0.916835 -0.507493 0.786841
v -0.949560 -0.518095 0.773922
v 0.916835 -0.518095 0.773922
v -0.949560 -0.531014 0.763320
v 0.916835 -0.531014 0.763320
v -0.949560 -0.545753 0.755442
v 0.916835 -0.545753 0.755442
v -0.949560 -0.561745 0.750591
v 0.916835 -0.561745 0.750591
v 0.634458 0.597827 -0.354107
v -0.595268 0.597827 -0.354107
v 0.798621 0.218580 -0.754994
v -0.767644 0.221969 -0.754994
v 0.634448 0.589649 -0.346405
v -0.595278 0.589649 -0.346405
v 0.798611 0.210403 -0.747292
v -0.767654 0.213791 -0.747292
v 0.883155 0.171207 0.127493
v 0.883155 0.205402 -0.680475
v 0.696059 0.575068 0.122791
v 0.698660 0.583425 -0.283263
v 0.868888 0.165162 0.127251
v 0.868888 0.199358 -0.680717
v 0.707726 0.572756 0.277964
v 0.706425 0.568578 1.049947
v 0.883155 0.164871 0.293105
v 0.883155 0.134139 1.519927
v 0.694809 0.567304 0.277863
v 0.693509 0.563126 1.049846
v 0.870239 0.159419 0.293004
v 0.870239 0.128687 1.519826
v 0.626114 0.581518 1.114664
v -0.612818 0.581518 1.114664
v -0.803481 0.130612 1.589134
v 0.820519 0.130612 1.589134
v 0.626114 0.572008 1.104794
v -0.612818 0.572008 1.104794
v -0.803481 0.121102 1.579264
v 0.820519 0.121102 1.579264
v -0.710329 0.562814 1.045959
v -0.883158 0.130557 1.518671
v -0.712930 0.593750 -0.268934
v -0.883158 0.223648 -0.657946
v -0.711629 0.579879 0.127453
v -0.883158 0.167083 0.131128
v -0.698528 0.587535 -0.269168
v -0.868755 0.217434 -0.658179
v -0.697227 0.585497 0.127220
v -0.868755 0.169428 0.130895
v -0.710979 0.573653 0.279188
v -0.883158 0.160967 0.296192
v -0.695144 0.556535 1.045823
v -0.867973 0.124278 1.518536
v -0.695794 0.567374 0.279053
v -0.867973 0.154688 0.296057
vn -0.0000 -0.0980 -0.9952
vn -0.0000 -0.2903 -0.9569
vn -0.0000 -0.4714 -0.8819
vn -0.0000 -0.6344 -0.7730
vn -0.0000 -0.7730 -0.6344
vn -0.0000 -0.8819 -0.4714
vn -0.0000 -0.9569 -0.2903
vn -0.0000 -0.9952 -0.0980
vn -0.0000 -0.9952 0.0980
vn -0.0000 -0.9569 0.2903
vn -0.0000 -0.8819 0.4714
vn -0.0000 -0.7730 0.6344
vn -0.0000 -0.6344 0.7730
vn -0.0000 -0.4714 0.8819
vn -0.0000 -0.2903 0.9569
vn -0.0000 -0.0980 0.9952
vn -0.0000 0.0980 0.9952
vn -0.0000 0.2903 0.9569
vn -0.0000 0.4714 0.8819
vn -0.0000 0.6344 0.7730
vn -0.0000 0.7730 0.6344
vn -0.0000 0.8819 0.4714
vn -0.0000 0.9569 0.2903
vn -0.0000 0.9952 0.0980
vn -0.0000 0.9952 -0.0980
vn -0.0000 0.9569 -0.2903
vn -0.0000 0.8819 -0.4714
vn -0.0000 0.7730 -0.6344
vn -0.0000 0.6344 -0.7730
vn -0.0000 0.4714 -0.8819
vn 1.0000 -0.0000 -0.0000
vn -0.0000 0.2903 -0.9569
vn -0.0000 0.0980 -0.9952
vn -1.0000 -0.0000 -0.0000
vn -0.0000 -0.0000 1.0000
vn -0.0000 -0.0000 -1.0000
vn -0.0000 -1.0000 -0.0000
vn -0.0000 1.0000 -0.0000
vn -0.0000 -0.8178 -0.5755
vn -0.0000 -0.7249 -0.6889
vn -0.5493 -0.8351 0.0301
vn -0.3336 -0.8627 -0.3800
vn -0.0000 -0.0526 -0.9986
vn -0.0000 0.3162 -0.9487
vn -0.0000 -0.0587 -0.9983
vn -0.0000 0.3293 0.9442
vn -0.0000 0.9999 -0.0159
vn -0.0000 0.7569 0.6535
vn -0.0000 0.7568 0.6537
vn -0.0002 0.9792 0.2029
vn -0.0006 0.9783 0.2070
vn -0.0000 0.9797 0.2004
vn -0.0008 0.9778 0.2095
vn -0.0004 0.9375 -0.3479
vn 0.0002 0.9355 -0.3534
vn -0.0007 0.9388 -0.3446
vn 0.0005 0.9342 -0.3567
vn 0.0002 0.5204 -0.8539
vn 0.0001 0.5228 -0.8525
vn 0.0003 0.5188 -0.8549
vn -0.0000 0.5244 -0.8515
vn -0.0000 0.2605 -0.9655
vn -0.0000 -0.9999 -0.0129
vn -0.0000 0.2510 0.9680
vn -0.0000 0.7270 0.6866
vn -0.0000 0.9874 0.1582
vn 0.0011 0.7322 -0.6811
vn -0.0000 0.7326 -0.6807
vn 0.0087 0.7294 -0.6840
vn -0.0000 0.9768 -0.2144
vn -0.0000 0.2334 -0.9724
vn -0.0000 0.6712 -0.7413
vn -0.0000 -0.6877 -0.7260
vn 0.3131 0.7652 -0.5626
vn 0.6101 0.7747 -0.1662
vn -0.6025 -0.7975 -0.0323
vn -0.6069 0.7940 0.0344
vn -0.3921 -0.6582 -0.6427
vn -0.9340 0.3569 -0.0132
vn 0.9339 0.3571 -0.0160
vn -0.9104 -0.2648 -0.3180
vn 0.3053 0.0888 -0.9481
vn 0.9104 0.2648 0.3180
vn -0.3053 -0.0888 0.9481
vn 0.5824 -0.8051 0.1122
vn -0.5064 0.8583 -0.0827
vn -0.8407 0.4928 -0.2246
vn 0.2793 -0.9602 -0.0000
vn -0.2793 0.9602 -0.0000
vn 0.0715 -0.9950 -0.0702
vn 0.6362 0.7218 0.2725
vn 0.9104 -0.2647 -0.3180
vn -0.3053 0.0888 -0.9481
vn -0.9104 0.2648 0.3180
vn 0.3053 -0.0888 0.9481
vn -0.5824 -0.8051 0.1122
vn 0.5064 0.8583 -0.0827
vn 0.8407 0.4928 -0.2246
vn -0.2793 -0.9602 -0.0000
vn 0.2793 0.9602 -0.0000
vn -0.0715 -0.9950 -0.0702
vn -0.6362 0.7218 0.2725
vn -0.0000 -0.3049 0.9524
vn -0.0000 0.3049 -0.9524
vn -0.0000 -0.9524 -0.3049
vn -0.0000 0.9524 0.3049
vn -0.0000 0.9765 -0.2154
vn -0.0000 0.6644 -0.7474
vn -0.3228 0.7724 -0.5471
vn -0.5833 0.7945 -0.1688
vn 0.5703 0.8174 -0.0820
vn 0.0038 0.9889 -0.1486
vn -0.5807 0.8054 -0.1184
vn -0.0000 -0.7954 -0.6060
vn -0.0000 -0.7960 -0.6053
vn 0.3172 -0.8681 -0.3818
vn 0.5800 -0.8146 -0.0079
vn 0.5352 -0.7304 -0.4244
vn 0.0298 0.7292 -0.6837
vn -0.9172 0.3983 0.0060
vn 0.9257 0.3783 0.0059
vn -0.0000 -0.0981 0.9952
vn -0.0000 0.0981 0.9952
vn 0.0105 0.7288 -0.6847
vn 0.9542 -0.2058 -0.2173
vn 0.0009 0.7280 -0.6856
vn 0.0015 0.6856 0.7280
vn -0.0000 -0.6856 -0.7280
vn -0.9585 -0.1949 -0.2081
vn 0.0183 -0.0032 -0.9998
vn 0.9334 0.3549 0.0526
vn 0.9207 0.3901 0.0156
vn 0.3903 -0.9205 -0.0164
vn -0.3904 0.9198 0.0389
vn 0.2577 -0.6373 0.7262
vn 0.9195 0.3922 0.0254
vn 0.3889 -0.9213 -0.0043
vn 0.9211 0.3893 0.0074
vn 0.2800 -0.6502 -0.7063
vn -0.0199 0.0286 0.9994
vn -0.3889 0.9210 0.0231
vn 0.9585 0.2052 -0.1977
vn -0.9600 0.2016 -0.1942
vn -0.0000 -0.7201 0.6939
vn -0.0000 0.7201 -0.6939
vn 0.3822 0.9238 0.0230
vn -0.9199 0.3913 0.0256
vn -0.2638 -0.6385 0.7230
vn -0.9201 0.3914 0.0175
vn -0.0155 -0.0025 -0.9999
vn -0.0210 -0.9996 -0.0200
vn 0.1339 0.9888 0.0655
vn -0.9229 0.3847 0.0169
vn -0.9241 0.3821 0.0082
vn 0.0221 0.0320 0.9992
vn -0.2776 -0.6563 -0.7016
vn -0.3822 -0.9240 -0.0127
s 1
usemtl Material.000
f 49//13 50//13 52//13 51//13
f 51//14 52//14 54//14 53//14
f 53//15 54//15 56//15 55//15
f 55//16 56//16 58//16 57//16
f 57//17 58//17 60//17 59//17
f 59//18 60//18 62//18 61//18
f 61//19 62//19 64//19 63//19
f 63//20 64//20 66//20 65//20
f 65//21 66//21 68//21 67//21
f 67//22 68//22 70//22 69//22
f 69//23 70//23 72//23 71//23
f 71//24 72//24 74//24 73//24
f 73//25 74//25 76//25 75//25
f 75//26 76//26 78//26 77//26
f 77//27 78//27 80//27 79//27
f 79//28 80//28 82//28 81//28
f 81//29 82//29 84//29 83//29
f 83//30 84//30 86//30 85//30
f 85//31 86//31 88//31 87//31
f 87//32 88//32 90//32 89//32
f 89//33 90//33 92//33 91//33
f 91//34 92//34 94//34 93//34
f 93//35 94//35 96//35 95//35
f 95//36 96//36 98//36 97//36
f 97//37 98//37 100//37 99//37
f 99//38 100//38 102//38 101//38
f 101//39 102//39 104//39 103//39
f 103//40 104//40 106//40 105//40
f 105//41 106//41 108//41 107//41
f 107//42 108//42 110//42 109//42
f 52//43 50//43 112//43 110//43 108//43 106//43 104//43 102//43 100//43 98//43 96//43 94//43 92//43 90//43 88//43 86//43 84//43 82//43 80//43 78//43 76//43 74//43 72//43 70//43 68//43 66//43 64//43 62//43 60//43 58//43 56//43 54//43
f 109//44 110//44 112//44 111//44
f 111//45 112//45 50//45 49//45
f 49//46 51//46 53//46 55//46 57//46 59//46 61//46 63//46 65//46 67//46 69//46 71//46 73//46 75//46 77//46 79//46 81//46 83//46 85//46 87//46 89//46 91//46 93//46 95//46 97//46 99//46 101//46 103//46 105//46 107//46 109//46 111//46
f 113//13 192//13 179//13 115//13
f 115//14 179//14 200//14 117//14
f 117//15 200//15 207//15 119//15
f 119//16 207//16 201//16 121//16
f 121//17 201//17 202//17 123//17
f 123//18 202//18 208//18 125//18
f 125//19 208//19 206//19 127//19
f 127//20 206//20 205//20 129//20
f 129//21 205//21 203//21 131//21
f 131//22 203//22 204//22 133//22
f 133//23 204//23 198//23 135//23
f 135//24 198//24 188//24 137//24
f 137//25 188//25 181//25 139//25
f 139//26 181//26 182//26 141//26
f 141//27 182//27 183//27 143//27
f 143//28 183//28 191//28 145//28
f 145//29 191//29 197//29 147//29
f 147//30 197//30 184//30 149//30
f 149//31 184//31 187//31 151//31
f 151//32 187//32 196//32 153//32
f 153//33 196//33 194//33 155//33
f 155//34 194//34 193//34 157//34
f 157//35 193//35 195//35 159//35
f 159//36 195//36 185//36 161//36
f 161//37 185//37 180//37 163//37
f 163//38 180//38 177//38 165//38
f 165//39 177//39 178//39 167//39
f 167//40 178//40 189//40 169//40
f 169//41 189//41 190//41 171//41
f 171//42 190//42 186//42 173//42
f 116//43 114//43 176//43 174//43 172//43 170//43 168//43 166//43 164//43 162//43 160//43 158//43 156//43 154//43 152//43 150//43 148//43 146//43 144//43 142//43 140//43 138//43 136//43 134//43 132//43 130//43 128//43 126//43 124//43 122//43 120//43 118//43
f 173//44 186//44 199//44 175//44
f 175//45 199//45 192//45 113//45
f 113//46 115//46 117//46 119//46 121//46 123//46 125//46 127//46 129//46 131//46 133//46 135//46 137//46 139//46 141//46 143//46 145//46 147//46 149//46 151//46 153//46 155//46 157//46 159//46 161//46 163//46 165//46 167//46 169//46 171//46 173//46 175//46
f 223//15 209//15 118//15 120//15
f 234//41 233//41 170//41 172//41
f 224//18 213//18 124//18 126//18
f 233//40 228//40 168//40 170//40
f 213//17 210//17 122//17 124//17
f 216//31 215//31 150//31 152//31
f 229//13 235//13 114//13 116//13
f 209//14 229//14 116//14 118//14
f 228//39 227//39 166//39 168//39
f 226//23 219//23 134//23 136//23
f 237//33 239//33 154//33 156//33
f 219//22 217//22 132//22 134//22
f 227//38 230//38 164//38 166//38
f 211//25 218//25 138//25 140//25
f 231//46 230//46 227//46 228//46 233//46 234//46 232//46 240//46 235//46 229//46 209//46 223//46 210//46 213//46 224//46 222//46 220//46 217//46 219//46 226//46 218//46 211//46 212//46 214//46 221//46 225//46 215//46 216//46 239//46 237//46 236//46 238//46
f 222//19 224//19 126//19 128//19
f 238//35 236//35 158//35 160//35
f 239//32 216//32 152//32 154//32
f 230//37 231//37 162//37 164//37
f 232//42 234//42 172//42 174//42
f 235//45 240//45 176//45 114//45
f 220//20 222//20 128//20 130//20
f 212//26 211//26 140//26 142//26
f 221//28 214//28 144//28 146//28
f 205//43 206//43 208//43 202//43 201//43 207//43 200//43 179//43 192//43 199//43 186//43 190//43 189//43 178//43 177//43 180//43 185//43 195//43 193//43 194//43 196//43 187//43 184//43 197//43 191//43 183//43 182//43 181//43 188//43 198//43 204//43 203//43
f 215//30 225//30 148//30 150//30
f 210//16 223//16 120//16 122//16
f 218//24 226//24 136//24 138//24
f 240//44 232//44 174//44 176//44
f 231//36 238//36 160//36 162//36
f 217//21 220//21 130//21 132//21
f 225//29 221//29 146//29 148//29
f 236//34 237//34 156//34 158//34
f 214//27 212//27 142//27 144//27
f 241//47 242//47 244//47 243//47
f 243//46 244//46 248//46 247//46
f 247//48 248//48 246//48 245//48
f 245//43 246//43 242//43 241//43
f 243//49 247//49 245//49 241//49
f 248//50 244//50 242//50 246//50
f 249//50 251//50 521//50 522//50 252//50 250//50
f 253//51 249//51 251//51 254//51 611//51 612//51
f 614//52 611//52 254//52 314//52
f 514//53 513//53 256//53 258//53
f 515//54 514//54 258//54 260//54
f 260//48 262//48 261//48 259//48 518//48 515//48
f 261//50 262//50 264//50 263//50
f 265//55 263//55 264//55 266//55
f 265//49 266//49 268//49 267//49
f 268//56 270//56 269//56 267//56
f 271//57 269//57 270//57 272//57
f 274//58 275//58 273//58
f 273//59 271//59 272//59 274//59
f 275//58 274//58 276//58
f 276//60 277//61 275//61
f 277//61 276//60 278//60
f 278//62 279//63 277//64
f 279//63 278//62 280//65
f 280//66 281//67 279//68
f 281//67 280//66 282//69
f 282//70 283//71 281//72
f 283//71 282//70 284//73
f 284//74 285//74 283//74
f 285//74 284//74 286//74
f 287//49 288//49 286//49 285//49
f 301//75 302//75 300//75 299//75
f 317//76 288//76 290//76 318//76
f 318//77 319//77 291//77 289//77
f 320//78 319//78 292//78 294//78
f 520//79 250//80 252//80 519//80 589//80 590//81
f 321//82 320//82 294//82 296//82
f 298//83 299//83 297//83 322//83
f 322//84 321//84 296//84 298//84
f 299//83 298//83 300//83
f 303//85 304//85 302//85 301//85
f 509//86 308//86 306//86 510//86
f 325//47 506//47 503//47 323//47
f 326//43 505//43 506//43 325//43
f 324//48 504//48 505//48 326//48
f 306//48 304//48 303//48 305//48 512//48 510//48
f 323//46 503//46 504//46 324//46
f 509//87 508//87 310//87 308//87
f 314//88 606//88 605//88 597//88 598//88 315//88 312//88 256//88
f 311//46 309//46 307//46 305//46 303//46 301//46 299//46 297//46 295//46 293//46 291//46 289//46 287//46 285//46 283//46 281//46 279//46 277//46 275//46 273//46 271//46 269//46 267//46 265//46 263//46 261//46 259//46 257//46 255//46
f 316//89 311//89 255//89 313//89 620//89 630//89 624//89 622//89
f 513//90 314//90 256//90
f 619//91 620//91 313//91 253//91
f 606//92 604//92 254//92 314//92
f 297//84 295//84 321//84 322//84
f 295//82 293//82 320//82 321//82
f 293//78 291//78 319//78 320//78
f 290//77 292//77 319//77 318//77
f 287//76 317//76 318//76 289//76
f 324//49 326//49 325//49 323//49
f 327//93 328//93 330//93 329//93
f 345//94 343//94 334//94 333//94
f 333//95 334//95 332//95 331//95
f 337//96 338//96 328//96 327//96
f 345//97 333//97 331//97 344//97
f 336//98 330//98 328//98 338//98
f 339//99 336//99 338//99 342//99
f 329//100 335//100 337//100 327//100
f 340//96 342//96 338//96 337//96
f 329//94 330//94 336//94 335//94
f 344//96 346//96 342//96 340//96
f 343//101 339//101 342//101 346//101
f 335//102 341//102 340//102 337//102
f 335//94 336//94 339//94 341//94
f 334//103 343//103 346//103 332//103
f 331//96 332//96 346//96 344//96
f 341//100 345//100 344//100 340//100
f 341//94 339//94 343//94 345//94
f 347//104 349//104 350//104 348//104
f 365//105 353//105 354//105 363//105
f 353//106 351//106 352//106 354//106
f 357//107 347//107 348//107 358//107
f 365//108 364//108 351//108 353//108
f 356//109 358//109 348//109 350//109
f 359//110 362//110 358//110 356//110
f 349//111 347//111 357//111 355//111
f 360//107 357//107 358//107 362//107
f 349//105 355//105 356//105 350//105
f 364//107 360//107 362//107 366//107
f 363//112 366//112 362//112 359//112
f 355//113 357//113 360//113 361//113
f 355//105 361//105 359//105 356//105
f 354//114 352//114 366//114 363//114
f 351//107 364//107 366//107 352//107
f 361//111 360//111 364//111 365//111
f 361//105 365//105 363//105 359//105
f 367//115 368//115 370//115 369//115
f 369//46 370//46 374//46 373//46
f 373//116 374//116 372//116 371//116
f 371//43 372//43 368//43 367//43
f 369//117 373//117 371//117 367//117
f 374//118 370//118 368//118 372//118
f 375//13 466//13 459//13 377//13
f 377//14 459//14 458//14 379//14
f 379//15 458//15 468//15 381//15
f 381//16 468//16 460//16 383//16
f 383//17 460//17 461//17 385//17
f 385//18 461//18 469//18 387//18
f 387//19 469//19 467//19 389//19
f 389//20 467//20 465//20 391//20
f 391//21 465//21 462//21 393//21
f 393//22 462//22 464//22 395//22
f 395//23 464//23 470//23 397//23
f 397//24 470//24 463//24 399//24
f 399//25 463//25 442//25 401//25
f 401//26 442//26 443//26 403//26
f 403//27 443//27 444//27 405//27
f 405//28 444//28 451//28 407//28
f 407//29 451//29 456//29 409//29
f 409//30 456//30 445//30 411//30
f 411//31 445//31 448//31 413//31
f 413//32 448//32 455//32 415//32
f 415//33 455//33 453//33 417//33
f 417//34 453//34 452//34 419//34
f 419//35 452//35 454//35 421//35
f 421//36 454//36 446//36 423//36
f 423//37 446//37 441//37 425//37
f 425//38 441//38 439//38 427//38
f 427//39 439//39 440//39 429//39
f 429//40 440//40 449//40 431//40
f 431//41 449//41 450//41 433//41
f 433//42 450//42 447//42 435//42
f 378//43 376//43 438//43 436//43 434//43 432//43 430//43 428//43 426//43 424//43 422//43 420//43 418//43 416//43 414//43 412//43 410//43 408//43 406//43 404//43 402//43 400//43 398//43 396//43 394//43 392//43 390//43 388//43 386//43 384//43 382//43 380//43
f 435//44 447//44 457//44 437//44
f 437//45 457//45 466//45 375//45
f 375//46 377//46 379//46 381//46 383//46 385//46 387//46 389//46 391//46 393//46 395//46 397//46 399//46 401//46 403//46 405//46 407//46 409//46 411//46 413//46 415//46 417//46 419//46 421//46 423//46 425//46 427//46 429//46 431//46 433//46 435//46 437//46
f 497//15 487//15 380//15 382//15
f 495//41 494//41 432//41 434//41
f 494//40 486//40 430//40 432//40
f 482//18 474//18 386//18 388//18
f 474//17 471//17 384//17 386//17
f 493//31 490//31 412//31 414//31
f 488//13 496//13 376//13 378//13
f 487//14 488//14 378//14 380//14
f 486//39 485//39 428//39 430//39
f 484//23 478//23 396//23 398//23
f 499//33 501//33 416//33 418//33
f 478//22 476//22 394//22 396//22
f 485//38 489//38 426//38 428//38
f 472//25 477//25 400//25 402//25
f 491//46 489//46 485//46 486//46 494//46 495//46 492//46 502//46 496//46 488//46 487//46 497//46 471//46 474//46 482//46 481//46 479//46 476//46 478//46 484//46 477//46 472//46 473//46 475//46 480//46 483//46 490//46 493//46 501//46 499//46 498//46 500//46
f 481//19 482//19 388//19 390//19
f 500//35 498//35 420//35 422//35
f 501//32 493//32 414//32 416//32
f 489//37 491//37 424//37 426//37
f 492//42 495//42 434//42 436//42
f 496//45 502//45 438//45 376//45
f 479//20 481//20 390//20 392//20
f 473//26 472//26 402//26 404//26
f 480//28 475//28 406//28 408//28
f 465//43 467//43 469//43 461//43 460//43 468//43 458//43 459//43 466//43 457//43 447//43 450//43 449//43 440//43 439//43 441//43 446//43 454//43 452//43 453//43 455//43 448//43 445//43 456//43 451//43 444//43 443//43 442//43 463//43 470//43 464//43 462//43
f 490//30 483//30 410//30 412//30
f 471//16 497//16 382//16 384//16
f 477//24 484//24 398//24 400//24
f 502//44 492//44 436//44 438//44
f 491//36 500//36 422//36 424//36
f 476//21 479//21 392//21 394//21
f 483//29 480//29 408//29 410//29
f 498//34 499//34 418//34 420//34
f 475//27 473//27 404//27 406//27
f 506//50 505//50 504//50 503//50
f 511//119 507//119 508//119 509//119
f 511//120 509//120 510//120 512//120
f 307//121 511//121 512//121 305//121
f 307//122 309//122 507//122 511//122
f 508//123 315//123 312//123 310//123
f 316//124 592//124 591//124 315//124 508//124 507//124
f 311//125 316//125 507//125 309//125
f 518//126 517//126 514//126 515//126
f 517//49 516//49 513//49 514//49
f 313//127 613//127 614//127 314//127 513//127 516//127
f 259//128 257//128 517//128 518//128
f 257//129 255//129 516//129 517//129
f 255//130 313//130 516//130
f 591//131 589//131 519//131 315//131
f 250//132 520//132 621//132 623//132 629//132 619//132 253//132 249//132
f 252//133 522//133 521//133 251//133 254//133 604//133 603//133 523//133 524//133 519//133
f 256//46 312//46 310//46 308//46 306//46 304//46 302//46 300//46 298//46 296//46 294//46 292//46 290//46 288//46 286//46 284//46 282//46 280//46 278//46 276//46 274//46 272//46 270//46 268//46 266//46 264//46 262//46 260//46 258//46
f 525//13 526//13 528//13 527//13
f 527//14 528//14 530//14 529//14
f 529//15 530//15 532//15 531//15
f 531//16 532//16 534//16 533//16
f 533//17 534//17 536//17 535//17
f 535//18 536//18 538//18 537//18
f 537//19 538//19 540//19 539//19
f 539//20 540//20 542//20 541//20
f 541//21 542//21 544//21 543//21
f 543//22 544//22 546//22 545//22
f 545//23 546//23 548//23 547//23
f 547//24 548//24 550//24 549//24
f 549//25 550//25 552//25 551//25
f 551//26 552//26 554//26 553//26
f 553//27 554//27 556//27 555//27
f 555//134 556//134 558//134 557//134
f 557//135 558//135 560//135 559//135
f 559//30 560//30 562//30 561//30
f 561//31 562//31 564//31 563//31
f 563//32 564//32 566//32 565//32
f 565//33 566//33 568//33 567//33
f 567//34 568//34 570//34 569//34
f 569//35 570//35 572//35 571//35
f 571//36 572//36 574//36 573//36
f 573//37 574//37 576//37 575//37
f 575//38 576//38 578//38 577//38
f 577//39 578//39 580//39 579//39
f 579//40 580//40 582//40 581//40
f 581//41 582//41 584//41 583//41
f 583//42 584//42 586//42 585//42
f 528//43 526//43 588//43 586//43 584//43 582//43 580//43 578//43 576//43 574//43 572//43 570//43 568//43 566//43 564//43 562//43 560//43 558//43 556//43 554//43 552//43 550//43 548//43 546//43 544//43 542//43 540//43 538//43 536//43 534//43 532//43 530//43
f 585//44 586//44 588//44 587//44
f 587//45 588//45 526//45 525//45
f 525//46 527//46 529//46 531//46 533//46 535//46 537//46 539//46 541//46 543//46 545//46 547//46 549//46 551//46 553//46 555//46 557//46 559//46 561//46 563//46 565//46 567//46 569//46 571//46 573//46 575//46 577//46 579//46 581//46 583//46 585//46 587//46
f 316//136 520//79 590//81 592//136
f 592//137 590//137 594//137 596//137
f 596//138 594//138 593//138 595//138
f 591//139 592//139 596//139 595//139
f 590//140 589//140 593//140 594//140
f 589//141 591//141 595//141 593//141
f 523//142 597//142 601//142 599//142
f 519//143 524//143 598//143 315//143
f 600//144 599//144 601//144 602//144
f 524//145 523//145 599//145 600//145
f 597//146 598//146 602//146 601//146
f 598//147 524//147 600//147 602//147
f 597//148 523//148 603//148 605//148
f 603//149 604//149 608//149 607//149
f 609//150 607//150 608//150 610//150
f 604//151 606//151 610//151 608//151
f 605//152 603//152 607//152 609//152
f 606//153 605//153 609//153 610//153
f 611//154 614//154 618//154 615//154
f 313//52 253//52 612//52 613//52
f 617//52 616//52 615//52 618//52
f 613//155 612//155 616//155 617//155
f 614//156 613//156 617//156 618//156
f 612//157 611//157 615//157 616//157
f 630//158 620//158 632//158 634//158
f 520//159 316//159 622//159 621//159
f 621//160 622//160 626//160 625//160
f 625//161 626//161 628//161 627//161
f 624//162 623//162 627//162 628//162
f 623//163 621//163 625//163 627//163
f 622//164 624//164 628//164 626//164
f 623//165 624//165 630//165 629//165
f 633//166 634//166 632//166 631//166
f 629//167 630//167 634//167 633//167
f 620//168 619//168 631//168 632//168
f 619//169 629//169 633//169 631//169
