# Blender 5.0.1
# www.blender.org
mtllib denete.mtl
o Icosphère
v 0.000000 -2.640000 0.000000
v 1.910304 -1.180648 1.387901
v -0.729656 -1.180648 2.245690
v -2.361282 -1.180648 0.000000
v -0.729656 -1.180648 -2.245690
v 1.910304 -1.180648 -1.387901
v 0.729656 1.180648 2.245690
v -1.910304 1.180648 1.387901
v -1.910304 1.180648 -1.387901
v 0.729656 1.180648 -2.245690
v 2.361282 1.180648 0.000000
v 0.000000 2.640000 0.000000
v 2.820000 -3.552160 0.000000
v 2.637515 -3.050786 0.000000
v 2.175446 -2.784010 0.000000
v 1.650000 -2.876660 0.000000
v 1.307040 -3.285384 0.000000
v 1.307040 -3.818936 0.000000
v 1.650000 -4.227660 0.000000
v 2.175446 -4.320310 0.000000
v 2.637515 -4.053534 0.000000
v 2.496986 -3.552160 -1.310519
v 2.335403 -3.050786 -1.225714
v 1.926261 -2.784010 -1.010980
v 1.461002 -2.876660 -0.766793
v 1.157326 -3.285384 -0.607412
v 1.157326 -3.818936 -0.607412
v 1.461002 -4.227660 -0.766793
v 1.926261 -4.320310 -1.010980
v 2.335403 -4.053534 -1.225714
v 1.601942 -3.552160 -2.320815
v 1.498279 -3.050786 -2.170632
v 1.235794 -2.784010 -1.790357
v 0.937307 -2.876660 -1.357924
v 0.742483 -3.285384 -1.075673
v 0.742483 -3.818936 -1.075673
v 0.937307 -4.227660 -1.357924
v 1.235794 -4.320310 -1.790357
v 1.498279 -4.053534 -2.170632
v 0.339914 -3.552160 -2.799439
v 0.317918 -3.050786 -2.618284
v 0.262221 -2.784010 -2.159584
v 0.198886 -2.876660 -1.637970
v 0.157546 -3.285384 -1.297510
v 0.157546 -3.818936 -1.297510
v 0.198886 -4.227660 -1.637970
v 0.262221 -4.320310 -2.159584
v 0.317918 -4.053534 -2.618284
v -0.999986 -3.552160 -2.636746
v -0.935276 -3.050786 -2.466119
v -0.771424 -2.784010 -2.034077
v -0.585098 -2.876660 -1.542777
v -0.463483 -3.285384 -1.222103
v -0.463483 -3.818936 -1.222103
v -0.585098 -4.227660 -1.542777
v -0.771424 -4.320310 -2.034077
v -0.935276 -4.053534 -2.466119
v -2.110801 -3.552160 -1.870005
v -1.974208 -3.050786 -1.748995
v -1.628345 -2.784010 -1.442587
v -1.235043 -2.876660 -1.094152
v -0.978334 -3.285384 -0.866727
v -0.978334 -3.818936 -0.866727
v -1.235043 -4.227660 -1.094152
v -1.628345 -4.320310 -1.442587
v -1.974208 -4.053534 -1.748995
v -2.738056 -3.552160 -0.674870
v -2.560874 -3.050786 -0.631199
v -2.112231 -2.784010 -0.520618
v -1.602054 -2.876660 -0.394871
v -1.269060 -3.285384 -0.312795
v -1.269060 -3.818936 -0.312795
v -1.602054 -4.227660 -0.394871
v -2.112231 -4.320310 -0.520618
v -2.560874 -4.053534 -0.631199
v -2.738056 -3.552160 0.674869
v -2.560874 -3.050786 0.631197
v -2.112231 -2.784010 0.520617
v -1.602054 -2.876660 0.394870
v -1.269060 -3.285384 0.312795
v -1.269060 -3.818936 0.312795
v -1.602054 -4.227660 0.394870
v -2.112231 -4.320310 0.520617
v -2.560874 -4.053534 0.631197
v -2.110801 -3.552160 1.870005
v -1.974208 -3.050786 1.748995
v -1.628345 -2.784010 1.442587
v -1.235043 -2.876660 1.094152
v -0.978334 -3.285384 0.866727
v -0.978334 -3.818936 0.866727
v -1.235043 -4.227660 1.094152
v -1.628345 -4.320310 1.442587
v -1.974208 -4.053534 1.748995
v -0.999986 -3.552160 2.636746
v -0.935276 -3.050786 2.466119
v -0.771424 -2.784010 2.034077
v -0.585098 -2.876660 1.542777
v -0.463483 -3.285384 1.222103
v -0.463483 -3.818936 1.222103
v -0.585098 -4.227660 1.542777
v -0.771424 -4.320310 2.034077
v -0.935276 -4.053534 2.466119
v 0.339914 -3.552160 2.799439
v 0.317918 -3.050786 2.618284
v 0.262221 -2.784010 2.159584
v 0.198886 -2.876660 1.637970
v 0.157546 -3.285384 1.297510
v 0.157546 -3.818936 1.297510
v 0.198886 -4.227660 1.637970
v 0.262221 -4.320310 2.159584
v 0.317918 -4.053534 2.618284
v 1.601941 -3.552160 2.320816
v 1.498278 -3.050786 2.170633
v 1.235793 -2.784010 1.790358
v 0.937306 -2.876660 1.357924
v 0.742483 -3.285384 1.075673
v 0.742483 -3.818936 1.075673
v 0.937306 -4.227660 1.357924
v 1.235793 -4.320310 1.790358
v 1.498278 -4.053534 2.170633
v 2.496985 -3.552160 1.310520
v 2.335403 -3.050786 1.225715
v 1.926261 -2.784010 1.010981
v 1.461002 -2.876660 0.766794
v 1.157326 -3.285384 0.607412
v 1.157326 -3.818936 0.607412
v 1.461002 -4.227660 0.766794
v 1.926261 -4.320310 1.010981
v 2.335403 -4.053534 1.225715
s 0
f 1 2 3
f 2 1 6
f 1 3 4
f 1 4 5
f 1 5 6
f 2 6 11
f 3 2 7
f 4 3 8
f 5 4 9
f 6 5 10
f 2 11 7
f 3 7 8
f 4 8 9
f 5 9 10
f 6 10 11
f 7 11 12
f 8 7 12
f 9 8 12
f 10 9 12
f 11 10 12
f 22 14 13
f 23 15 14
f 24 16 15
f 25 17 16
f 26 18 17
f 27 19 18
f 28 20 19
f 29 21 20
f 30 13 21
f 31 23 22
f 32 24 23
f 33 25 24
f 34 26 25
f 35 27 26
f 36 28 27
f 37 29 28
f 38 30 29
f 30 31 22
f 31 41 32
f 41 33 32
f 42 34 33
f 43 35 34
f 44 36 35
f 45 37 36
f 46 38 37
f 38 48 39
f 48 31 39
f 49 41 40
f 50 42 41
f 42 52 43
f 43 53 44
f 53 45 44
f 54 46 45
f 55 47 46
f 56 48 47
f 57 40 48
f 58 50 49
f 59 51 50
f 60 52 51
f 52 62 53
f 62 54 53
f 63 55 54
f 64 56 55
f 65 57 56
f 57 58 49
f 67 59 58
f 59 69 60
f 60 70 61
f 61 71 62
f 71 63 62
f 72 64 63
f 73 65 64
f 74 66 65
f 66 67 58
f 76 68 67
f 77 69 68
f 78 70 69
f 79 71 70
f 80 72 71
f 72 82 73
f 82 74 73
f 83 75 74
f 84 67 75
f 85 77 76
f 86 78 77
f 78 88 79
f 88 80 79
f 89 81 80
f 90 82 81
f 82 92 83
f 83 93 84
f 84 85 76
f 94 86 85
f 95 87 86
f 96 88 87
f 97 89 88
f 98 90 89
f 99 91 90
f 100 92 91
f 101 93 92
f 102 85 93
f 103 95 94
f 104 96 95
f 105 97 96
f 106 98 97
f 107 99 98
f 108 100 99
f 109 101 100
f 110 102 101
f 111 94 102
f 112 104 103
f 113 105 104
f 114 106 105
f 115 107 106
f 116 108 107
f 117 109 108
f 118 110 109
f 119 111 110
f 120 103 111
f 121 113 112
f 122 114 113
f 123 115 114
f 124 116 115
f 125 117 116
f 126 118 117
f 127 119 118
f 128 120 119
f 129 112 120
f 13 122 121
f 14 123 122
f 15 124 123
f 16 125 124
f 17 126 125
f 18 127 126
f 19 128 127
f 128 21 129
f 129 13 121
f 22 23 14
f 23 24 15
f 24 25 16
f 25 26 17
f 26 27 18
f 27 28 19
f 28 29 20
f 29 30 21
f 30 22 13
f 31 32 23
f 32 33 24
f 33 34 25
f 34 35 26
f 35 36 27
f 36 37 28
f 37 38 29
f 38 39 30
f 30 39 31
f 31 40 41
f 41 42 33
f 42 43 34
f 43 44 35
f 44 45 36
f 45 46 37
f 46 47 38
f 38 47 48
f 48 40 31
f 49 50 41
f 50 51 42
f 42 51 52
f 43 52 53
f 53 54 45
f 54 55 46
f 55 56 47
f 56 57 48
f 57 49 40
f 58 59 50
f 59 60 51
f 60 61 52
f 52 61 62
f 62 63 54
f 63 64 55
f 64 65 56
f 65 66 57
f 57 66 58
f 67 68 59
f 59 68 69
f 60 69 70
f 61 70 71
f 71 72 63
f 72 73 64
f 73 74 65
f 74 75 66
f 66 75 67
f 76 77 68
f 77 78 69
f 78 79 70
f 79 80 71
f 80 81 72
f 72 81 82
f 82 83 74
f 83 84 75
f 84 76 67
f 85 86 77
f 86 87 78
f 78 87 88
f 88 89 80
f 89 90 81
f 90 91 82
f 82 91 92
f 83 92 93
f 84 93 85
f 94 95 86
f 95 96 87
f 96 97 88
f 97 98 89
f 98 99 90
f 99 100 91
f 100 101 92
f 101 102 93
f 102 94 85
f 103 104 95
f 104 105 96
f 105 106 97
f 106 107 98
f 107 108 99
f 108 109 100
f 109 110 101
f 110 111 102
f 111 103 94
f 112 113 104
f 113 114 105
f 114 115 106
f 115 116 107
f 116 117 108
f 117 118 109
f 118 119 110
f 119 120 111
f 120 112 103
f 121 122 113
f 122 123 114
f 123 124 115
f 124 125 116
f 125 126 117
f 126 127 118
f 127 128 119
f 128 129 120
f 129 121 112
f 13 14 122
f 14 15 123
f 15 16 124
f 16 17 125
f 17 18 126
f 18 19 127
f 19 20 128
f 128 20 21
f 129 21 13
