# Blender 5.0.1
# www.blender.org
o BASE_Low_Poly_Man
v 5.316988 1.183513 0.488564
v 4.842207 6.244567 0.287976
v 4.611781 1.713443 1.172477
v 3.783823 5.930652 1.399313
v 4.487299 2.153594 -0.066312
v 3.552841 6.226210 -0.374738
v 3.976175 1.183513 0.601285
v 2.618612 6.141091 0.428439
v 4.159244 7.957090 0.935774
v 3.420518 7.910274 2.051203
v 2.695680 7.866245 1.048772
v 3.421552 7.910398 0.082066
v 3.872039 11.581054 1.369292
v 2.572710 11.428658 3.031332
v 1.273108 11.275774 1.660962
v 2.572709 11.428658 -0.020815
v 2.440367 15.591829 1.493705
v 1.432207 14.622648 2.866843
v 1.432206 14.622648 0.120567
v 4.847282 4.093946 0.417055
v 4.180341 3.931190 1.162136
v 3.488105 4.074703 0.427726
v 4.117321 4.539848 -0.406375
v 4.792365 -0.106158 1.285070
v 5.623981 -0.143503 0.396655
v 3.822676 -0.143503 0.606666
v 4.659923 -0.143503 -0.310275
v 4.846641 0.658982 2.444800
v 5.470264 0.770102 1.896042
v 4.129451 0.770102 2.008763
v 5.002140 -0.143503 3.729846
v 5.921412 -0.143503 3.257053
v 4.022053 -0.143503 3.467065
v 5.531047 0.610381 0.476700
v 4.618317 0.610381 -0.319761
v 3.865457 0.610381 0.670889
v 5.853105 0.344780 3.363467
v 4.096846 0.344780 3.557655
v 5.015773 0.344780 3.909757
v 2.183990 16.702368 1.746996
v 2.033832 17.771376 1.877840
v 2.078685 19.126831 1.861105
v 2.878066 21.393700 1.283580
v 2.623881 20.226068 1.667985
v 3.095858 23.307230 1.289474
v 1.030233 24.449930 1.181548
v 1.782936 24.023247 0.965687
v 1.043874 24.995396 1.415397
v 0.815535 24.902506 1.368277
v 1.145872 28.271057 1.367992
v 1.524905 26.381641 1.581806
v 0.797178 28.205189 0.382053
v 0.991938 25.988695 0.992883
v 0.572936 25.021568 0.680969
v 0.884855 26.853958 0.269582
v 3.833495 23.704433 0.599724
v 0.891468 24.082161 0.494702
v 0.572937 24.568993 0.494240
v 0.572936 24.795650 2.004018
v 0.891469 23.875198 1.617132
v 0.863232 24.619799 2.495198
v 0.572936 24.343075 1.817288
v 2.187369 23.284248 2.414059
v 0.931334 25.909737 2.731197
v 0.863232 28.347322 2.390338
v 0.527125 28.481182 1.347715
v 1.451611 27.326351 1.479103
v 0.841016 27.437023 0.140147
v 0.907071 27.284130 2.650087
v 1.416950 21.714621 3.135071
v 2.501269 21.815798 -0.114967
v 2.073042 20.668905 0.428960
v 1.287603 17.841175 0.927167
v 1.091995 16.896164 0.718756
v 1.515166 19.289183 0.948571
v 0.751379 20.358990 3.408906
v 1.327673 16.468250 2.918837
v 1.252594 18.956106 3.002660
v 1.252594 17.661112 2.997779
v 4.932800 18.775959 1.149755
v 5.705223 18.960217 0.608979
v 4.764300 18.319176 0.288624
v 5.536725 18.507233 -0.252161
v 2.719536 23.433651 -0.578473
v 3.883440 20.567078 1.649735
v 4.906776 21.176250 0.808803
v 3.783679 19.819841 0.316453
v 4.807017 20.431669 -0.528351
v 5.534911 17.740337 2.001843
v 6.769597 18.055164 1.301099
v 5.115287 16.873957 0.899005
v 6.349978 17.187956 0.179066
v 7.146820 15.071555 3.138147
v 7.641373 14.965317 2.955908
v 6.954048 14.655321 2.857663
v 7.448604 14.549083 2.675425
v 8.046316 12.914786 4.669935
v 8.375503 12.738346 4.273811
v 8.218516 12.439573 3.646317
v 7.955909 12.616016 4.042440
v 7.616632 13.747810 3.482299
v 7.511879 14.516851 4.501908
v 8.405249 14.218456 3.880389
v 7.971315 13.449413 2.860782
v -5.316988 1.183513 0.488564
v -4.842207 6.244567 0.287976
v -4.611781 1.713443 1.172477
v -3.783823 5.930652 1.399313
v -4.487299 2.153594 -0.066312
v -3.552841 6.226210 -0.374738
v -3.976175 1.183513 0.601285
v -2.618612 6.141091 0.428439
v -4.159244 7.957090 0.935774
v -3.420518 7.910274 2.051203
v -2.695680 7.866245 1.048772
v -3.421552 7.910398 0.082066
v -3.872039 11.581054 1.369292
v -2.572710 11.428658 3.031332
v -1.273108 11.275774 1.660962
v -2.572709 11.428658 -0.020815
v -2.440367 15.591829 1.493705
v -1.432207 14.622648 2.866843
v 0.000000 13.653467 1.493705
v -1.432206 14.622648 0.120567
v -4.847282 4.093946 0.417055
v -4.180341 3.931190 1.162136
v -3.488105 4.074703 0.427726
v -4.117321 4.539848 -0.406375
v -4.792365 -0.106158 1.285070
v -5.623981 -0.143503 0.396655
v -3.822676 -0.143503 0.606666
v -4.659923 -0.143503 -0.310275
v -4.846641 0.658982 2.444800
v -5.470264 0.770102 1.896042
v -4.129451 0.770102 2.008763
v -5.002140 -0.143503 3.729846
v -5.921412 -0.143503 3.257053
v -4.022053 -0.143503 3.467065
v -5.531047 0.610381 0.476700
v -4.618317 0.610381 -0.319761
v -3.865457 0.610381 0.670889
v -5.853105 0.344780 3.363467
v -4.096846 0.344780 3.557655
v -5.015773 0.344780 3.909757
v -2.183990 16.702368 1.746996
v 0.000000 16.234133 3.290485
v 0.000000 17.089958 0.400795
v -2.033832 17.771376 1.877840
v 0.000000 17.818758 3.317526
v 0.000000 17.961620 0.635864
v -2.078685 19.126831 1.861105
v 0.000000 19.279144 3.328135
v 0.000000 19.390375 0.258682
v -2.878066 21.393700 1.283580
v 0.000000 21.902996 3.440766
v 0.000000 22.303596 -0.620399
v 0.000000 20.926802 -0.405931
v -2.623881 20.226068 1.667985
v 0.000000 20.390299 3.617561
v -3.095858 23.307230 1.289474
v 0.000000 23.130877 2.669566
v -1.030233 24.449930 1.181548
v 0.000000 23.821270 -0.266892
v 0.000000 14.064755 3.056212
v 0.000000 15.522598 0.005090
v -1.782936 24.023247 0.965687
v 0.000000 23.777540 1.815216
v 0.000000 24.688799 2.186396
v 0.000000 24.129501 -0.066211
v 0.000000 24.236223 1.999667
v 0.000000 24.688055 0.274549
v -1.043874 24.995396 1.415397
v -0.815535 24.902506 1.368277
v 0.000000 25.140631 0.461279
v 0.000000 28.371984 2.720932
v 0.000000 28.587887 1.337420
v -1.145872 28.271057 1.367992
v 0.000000 28.180655 0.053170
v 0.000000 25.691183 0.272267
v 0.000000 24.317266 3.005527
v 0.000000 26.807823 -0.292436
v -1.524905 26.381641 1.581806
v 0.000000 25.728298 3.378273
v -0.797178 28.205189 0.382053
v -0.991938 25.988695 0.992883
v -0.572936 25.021568 0.680969
v -0.884855 26.853958 0.269582
v -3.833495 23.704433 0.599724
v -0.891468 24.082161 0.494702
v -0.572937 24.568993 0.494240
v -0.572936 24.795650 2.004018
v -0.891469 23.875198 1.617132
v -0.863232 24.619799 2.495198
v -0.572936 24.343075 1.817288
v -2.187369 23.284248 2.414059
v -0.931334 25.909737 2.731197
v -0.863232 28.347322 2.390338
v -0.527125 28.481182 1.347715
v 0.000000 27.401691 -0.340219
v -1.451611 27.326351 1.479103
v 0.000000 27.165150 3.177239
v -0.841016 27.437023 0.140147
v -0.907071 27.284130 2.650087
v -1.416950 21.714621 3.135071
v -2.501269 21.815798 -0.114967
v -2.073042 20.668905 0.428960
v -1.287603 17.841175 0.927167
v -1.091995 16.896164 0.718756
v -1.515166 19.289183 0.948571
v -0.751379 20.358990 3.408906
v -1.327673 16.468250 2.918837
v -1.252594 18.956106 3.002660
v -1.252594 17.661112 2.997779
v -4.932800 18.775959 1.149755
v -5.705223 18.960217 0.608979
v -4.764300 18.319176 0.288624
v -5.536725 18.507233 -0.252161
v -2.719536 23.433651 -0.578473
v -3.883440 20.567078 1.649735
v -4.906776 21.176250 0.808803
v -3.783679 19.819841 0.316453
v -4.807017 20.431669 -0.528351
v -5.534911 17.740337 2.001843
v -6.769597 18.055164 1.301099
v -5.115287 16.873957 0.899005
v -6.349978 17.187956 0.179066
v -7.146820 15.071555 3.138147
v -7.641373 14.965317 2.955908
v -6.954048 14.655321 2.857663
v -7.448604 14.549083 2.675425
v -8.046316 12.914786 4.669935
v -8.375503 12.738346 4.273811
v -8.218516 12.439573 3.646317
v -7.955909 12.616016 4.042440
v -7.616632 13.747810 3.482299
v -7.511879 14.516851 4.501908
v -8.405249 14.218456 3.880389
v -7.971315 13.449413 2.860782
s 0
f 20 4 21
f 4 22 21
f 22 6 23
f 23 2 20
f 34 27 35
f 8 12 6
f 11 16 12
f 4 9 10
f 2 12 9
f 4 11 8
f 13 19 17
f 10 13 14
f 12 13 9
f 10 15 11
f 15 18 123
f 15 19 16
f 13 18 14
f 5 20 1
f 22 5 7
f 3 22 7
f 20 3 1
f 24 27 25
f 36 33 38
f 24 33 26
f 35 26 36
f 38 31 39
f 37 31 32
f 34 29 37
f 3 30 28
f 3 29 1
f 24 32 31
f 34 32 25
f 28 37 29
f 28 38 39
f 7 35 36
f 36 30 7
f 1 35 5
f 17 74 40
f 73 42 41
f 146 79 149
f 40 73 41
f 149 78 152
f 76 155 159
f 72 43 44
f 75 44 42
f 152 76 159
f 161 60 167
f 70 161 155
f 18 164 123
f 165 19 123
f 57 46 47
f 56 47 45
f 46 54 49
f 167 62 170
f 67 52 50
f 62 168 170
f 176 52 178
f 69 175 201
f 168 61 180
f 54 48 49
f 61 183 180
f 48 53 51
f 54 179 53
f 68 181 199
f 55 179 181
f 54 171 174
f 58 169 171
f 56 163 169
f 60 46 62
f 59 48 61
f 62 49 59
f 63 47 60
f 64 48 51
f 69 51 67
f 52 66 50
f 50 66 65
f 176 65 66
f 51 53 55
f 65 67 50
f 68 178 52
f 64 201 183
f 55 67 51
f 63 43 45
f 71 157 156
f 74 150 73
f 72 153 157
f 75 150 153
f 70 44 43
f 77 41 79
f 78 41 42
f 76 42 44
f 77 17 40
f 156 84 71
f 88 82 87
f 80 91 89
f 87 80 85
f 88 81 83
f 84 86 88
f 43 87 85
f 71 88 87
f 80 86 85
f 92 95 91
f 81 92 83
f 82 92 91
f 81 89 90
f 101 97 102
f 91 93 89
f 90 93 94
f 92 94 96
f 43 86 45
f 86 56 45
f 100 98 97
f 103 97 98
f 104 98 99
f 104 100 101
f 96 101 95
f 96 103 104
f 94 102 103
f 93 101 102
f 146 18 77
f 74 165 147
f 125 108 106
f 127 108 126
f 127 110 112
f 128 106 110
f 132 139 140
f 116 112 110
f 120 115 116
f 108 113 106
f 106 116 110
f 115 108 112
f 117 124 120
f 114 117 113
f 117 116 113
f 119 114 115
f 119 122 118
f 124 119 120
f 122 117 118
f 109 125 128
f 109 127 111
f 107 127 126
f 107 125 105
f 129 132 131
f 141 138 131
f 138 129 131
f 131 140 141
f 136 143 144
f 142 136 144
f 139 134 105
f 107 135 111
f 134 107 105
f 129 137 130
f 137 139 130
f 142 133 134
f 133 143 135
f 111 140 109
f 135 141 111
f 140 105 109
f 121 208 124
f 151 207 148
f 146 213 211
f 145 207 208
f 149 212 213
f 155 210 159
f 154 206 158
f 158 209 151
f 152 210 212
f 161 192 195
f 161 204 155
f 122 123 164
f 165 123 124
f 162 189 166
f 166 188 160
f 162 186 190
f 167 194 192
f 200 184 202
f 168 194 170
f 176 184 198
f 175 203 201
f 168 193 191
f 172 186 173
f 183 193 180
f 172 182 185
f 179 186 185
f 202 181 187
f 187 179 185
f 186 171 190
f 190 169 189
f 169 218 188
f 162 192 194
f 172 191 193
f 173 194 191
f 166 195 192
f 196 172 193
f 203 182 196
f 184 177 198
f 177 197 198
f 197 176 198
f 182 187 185
f 197 200 203
f 178 202 184
f 201 196 183
f 200 187 182
f 195 154 204
f 205 157 206
f 150 208 207
f 206 153 209
f 209 150 207
f 204 158 210
f 148 211 213
f 212 148 213
f 210 151 212
f 211 121 122
f 156 218 163
f 216 222 221
f 214 225 216
f 214 221 219
f 222 215 220
f 218 220 188
f 154 221 205
f 205 222 218
f 214 220 215
f 229 226 225
f 226 215 217
f 216 226 217
f 215 223 214
f 231 235 236
f 227 225 223
f 224 227 223
f 226 228 224
f 220 154 160
f 220 160 188
f 234 232 233
f 237 231 236
f 238 232 237
f 234 238 235
f 235 230 229
f 230 237 228
f 228 236 227
f 227 235 229
f 146 122 164
f 208 165 124
f 20 2 4
f 4 8 22
f 22 8 6
f 23 6 2
f 34 25 27
f 8 11 12
f 11 15 16
f 4 2 9
f 2 6 12
f 4 10 11
f 13 16 19
f 10 9 13
f 12 16 13
f 10 14 15
f 15 14 18
f 15 123 19
f 13 17 18
f 5 23 20
f 22 23 5
f 3 21 22
f 20 21 3
f 24 26 27
f 36 26 33
f 24 31 33
f 35 27 26
f 38 33 31
f 37 39 31
f 34 1 29
f 3 7 30
f 3 28 29
f 24 25 32
f 34 37 32
f 28 39 37
f 28 30 38
f 7 5 35
f 36 38 30
f 1 34 35
f 17 19 74
f 73 75 42
f 146 77 79
f 40 74 73
f 149 79 78
f 76 70 155
f 72 71 43
f 75 72 44
f 152 78 76
f 161 63 60
f 70 63 161
f 57 58 46
f 56 57 47
f 46 58 54
f 167 60 62
f 67 68 52
f 62 59 168
f 176 66 52
f 69 65 175
f 168 59 61
f 54 53 48
f 61 64 183
f 54 174 179
f 68 55 181
f 55 53 179
f 54 58 171
f 58 57 169
f 169 57 56
f 56 84 163
f 60 47 46
f 59 49 48
f 62 46 49
f 63 45 47
f 64 61 48
f 69 64 51
f 176 175 65
f 65 69 67
f 68 199 178
f 64 69 201
f 55 68 67
f 63 70 43
f 71 72 157
f 74 147 150
f 72 75 153
f 75 73 150
f 70 76 44
f 77 40 41
f 78 79 41
f 76 78 42
f 77 18 17
f 156 163 84
f 88 83 82
f 80 82 91
f 87 82 80
f 88 86 81
f 84 56 86
f 43 71 87
f 71 84 88
f 80 81 86
f 92 96 95
f 81 90 92
f 82 83 92
f 81 80 89
f 101 100 97
f 91 95 93
f 90 89 93
f 92 90 94
f 43 85 86
f 100 99 98
f 103 102 97
f 104 103 98
f 104 99 100
f 96 104 101
f 96 94 103
f 94 93 102
f 93 95 101
f 146 164 18
f 74 19 165
f 125 126 108
f 127 112 108
f 127 128 110
f 128 125 106
f 132 130 139
f 116 115 112
f 120 119 115
f 108 114 113
f 106 113 116
f 115 114 108
f 117 121 124
f 114 118 117
f 117 120 116
f 119 118 114
f 119 123 122
f 124 123 119
f 122 121 117
f 109 105 125
f 109 128 127
f 107 111 127
f 107 126 125
f 129 130 132
f 141 143 138
f 138 136 129
f 131 132 140
f 136 138 143
f 142 137 136
f 139 142 134
f 107 133 135
f 134 133 107
f 129 136 137
f 137 142 139
f 142 144 133
f 133 144 143
f 111 141 140
f 135 143 141
f 140 139 105
f 121 145 208
f 151 209 207
f 146 149 213
f 145 148 207
f 149 152 212
f 155 204 210
f 154 205 206
f 158 206 209
f 152 159 210
f 161 167 192
f 161 195 204
f 162 190 189
f 166 189 188
f 162 173 186
f 167 170 194
f 200 177 184
f 168 191 194
f 176 178 184
f 175 197 203
f 168 180 193
f 172 185 186
f 183 196 193
f 179 174 186
f 202 199 181
f 187 181 179
f 186 174 171
f 190 171 169
f 188 189 169
f 169 163 218
f 162 166 192
f 172 173 191
f 173 162 194
f 166 160 195
f 196 182 172
f 203 200 182
f 197 175 176
f 197 177 200
f 178 199 202
f 201 203 196
f 200 202 187
f 195 160 154
f 205 156 157
f 150 147 208
f 206 157 153
f 209 153 150
f 204 154 158
f 148 145 211
f 212 151 148
f 210 158 151
f 211 145 121
f 156 205 218
f 216 217 222
f 214 223 225
f 214 216 221
f 222 217 215
f 218 222 220
f 154 219 221
f 205 221 222
f 214 219 220
f 229 230 226
f 226 224 215
f 216 225 226
f 215 224 223
f 231 234 235
f 227 229 225
f 224 228 227
f 226 230 228
f 220 219 154
f 234 231 232
f 237 232 231
f 238 233 232
f 234 233 238
f 235 238 230
f 230 238 237
f 228 237 236
f 227 236 235
f 146 211 122
f 208 147 165
