# Blender 5.0.1
# www.blender.org
o Cube
v 2.567654 0.165802 -5.061786
v -2.669880 0.023580 -1.858038
v -2.567702 0.165802 -5.061786
v 0.167494 -1.447650 -0.071766
v -0.000424 -1.645157 -4.700767
v 2.497996 0.061957 -2.722534
v 0.075422 -1.777915 -1.317611
v -2.632411 0.269646 -2.722535
v 0.116147 -1.508044 -1.487235
v -2.498044 0.061957 -2.722534
v -0.118405 -1.509256 -1.487235
v 2.497996 0.269646 -2.722534
v -0.074895 -1.778691 -1.317611
v 2.642261 0.061957 -2.722535
v -2.498044 0.269646 -2.722535
v 2.632363 0.269646 -2.722534
v -2.642308 0.061957 -2.722535
v -2.619382 0.248738 -3.193531
v -2.512069 0.082866 -3.193530
v 0.101285 -1.525525 -1.896945
v -2.627287 0.082866 -3.193531
v -0.103363 -1.526582 -1.896945
v 2.512022 0.248738 -3.193531
v 2.512022 0.082866 -3.193530
v -0.064673 -1.760361 -1.782002
v 0.065011 -1.759691 -1.782001
v -2.512069 0.248738 -3.193531
v 2.619334 0.248738 -3.193531
v 2.627239 0.082866 -3.193531
v 2.259882 -0.367394 -0.908681
v 2.259882 0.431475 -0.908681
v 2.395463 -0.187717 -2.554405
v 2.395463 0.519321 -2.554405
v 2.827675 -0.367394 -0.908681
v 2.642420 0.431475 -0.908681
v 2.756692 -0.187717 -2.554405
v 2.722998 0.519321 -2.554405
v 2.259882 -0.476183 -2.444423
v 2.259882 -0.581690 -0.915659
v 2.951310 -0.476183 -2.444423
v 2.827675 -0.581690 -0.915659
v 2.259882 0.722832 -2.554405
v 2.259882 -0.254301 -2.554405
v 2.951310 -0.254301 -2.554405
v 2.817268 0.722832 -2.554405
v 2.472253 0.308023 -1.858038
v 2.669833 0.023580 -1.858038
v 2.656277 0.308023 -1.858038
v 2.195801 -0.367394 0.327458
v 2.195801 0.263770 0.327458
v 2.192805 0.263770 0.327458
v 2.262884 -0.367394 0.327458
v 2.195801 -0.485744 0.327458
v 2.262884 -0.485744 0.327458
v 2.472253 0.023580 -1.858038
v -2.259930 -0.367394 -0.908681
v -2.259930 0.431475 -0.908681
v -2.395511 -0.187717 -2.554405
v -2.395511 0.519321 -2.554405
v -2.827723 -0.367394 -0.908681
v -2.642467 0.431475 -0.908681
v -2.756740 -0.187717 -2.554405
v -2.723045 0.519321 -2.554405
v -2.259930 -0.476183 -2.444423
v -2.259930 -0.581690 -0.915659
v -2.951357 -0.476183 -2.444423
v -2.827723 -0.581690 -0.915659
v -2.259930 0.722832 -2.554405
v -2.259930 -0.254301 -2.554405
v -2.951357 -0.254301 -2.554405
v -2.817315 0.722832 -2.554405
v -2.472301 0.308023 -1.858038
v -2.656325 0.308023 -1.858038
v -2.195849 -0.367394 0.327458
v -2.195849 0.263770 0.327458
v -2.192853 0.263770 0.327458
v -2.262932 -0.367394 0.327458
v -2.195849 -0.485744 0.327458
v -2.262932 -0.485744 0.327458
v -2.472301 0.023580 -1.858038
v -0.702844 -1.231552 3.402621
v 0.697688 -1.224320 3.402621
v -0.253910 -1.353169 -1.440325
v 0.250033 -1.350567 -1.440325
v -0.130231 -2.507836 0.454404
v 0.004612 -2.620397 0.643111
v -0.002067 -1.211187 7.031657
v -0.318469 -1.611979 3.402621
v 0.317262 -1.608696 3.402621
v 0.000781 -1.878473 3.849397
v 0.166647 -1.937590 -0.892425
v -0.164466 -1.939300 -0.892425
v 0.138286 -2.506450 0.454404
v 0.004222 -2.544894 -1.232210
v 0.438217 -1.222043 -1.556085
v -0.443375 -1.226596 -1.556085
v -0.316134 -2.064019 -0.776665
v 0.319596 -2.060737 -0.776665
v -0.170372 -1.449395 -0.071766
v 0.111588 -1.841217 0.295570
v -0.422390 0.715285 5.255337
v -0.648021 1.273807 2.507706
v 0.422738 0.715392 5.255238
v 0.647578 1.273970 2.507553
v -0.278634 -0.851155 9.707112
v 1.593611 0.020478 4.038548
v -2.262102 -0.612382 4.343865
v 2.810283 -0.612382 1.607952
v -2.810330 -0.612382 1.607952
v 2.262054 -0.612382 4.343865
v 0.278587 -0.851155 9.707112
v 1.214812 1.588896 0.278344
v -1.214859 1.588896 0.278344
v 1.682594 -0.063769 4.079192
v -2.090434 -0.063768 1.699355
v -1.682641 -0.063769 4.079192
v -1.593658 0.020478 4.038548
v -0.582899 0.020478 6.796055
v 1.979838 0.020478 1.815835
v 0.582852 0.020478 6.796055
v -1.979885 0.020478 1.815835
v 0.855828 1.341544 0.815835
v -0.855876 1.341544 0.815835
v 2.090386 -0.063768 1.699355
v -0.615445 -0.060290 7.031627
v 0.903616 1.374471 0.706757
v -0.903663 1.374471 0.706757
v 0.615398 -0.060290 7.031627
v 1.983346 -1.224320 4.275303
v 2.524102 -1.224320 0.917932
v -2.524149 -1.224320 0.917932
v -1.983393 -1.224320 4.275303
v -0.373688 -1.224320 7.530723
v 0.373641 -1.224320 7.530723
v 1.040079 0.177306 -1.717866
v 2.524102 -1.224320 -1.928206
v -2.524149 -1.224320 -1.928206
v 2.810283 -0.612382 -2.254663
v -2.810330 -0.612382 -2.254663
v 0.555571 1.981320 -2.745314
v -0.555619 1.981320 -2.745314
v 2.017175 -0.258577 -2.461644
v -2.017222 -0.258577 -2.461644
v 0.343723 1.572218 -2.719739
v -0.343770 1.572218 -2.719739
v 3.961035 0.095353 0.574852
v -3.961082 0.095352 0.574851
v 2.913748 1.334127 -0.303982
v -2.913795 1.334127 -0.303982
v 4.358089 0.169366 -1.613117
v 2.950328 1.695035 -3.040732
v -2.950375 1.695035 -3.040732
v 3.164278 1.380828 -0.241609
v 3.200858 1.741736 -2.978359
v -3.164325 1.380828 -0.241609
v -4.211613 0.142053 0.637225
v 4.211565 0.142053 0.637225
v -3.200906 1.741736 -2.978359
v 4.608619 0.216067 -1.550744
v -2.832644 0.432131 2.857642
v -2.697400 -0.140207 4.090612
v 2.832596 0.432131 2.857642
v -3.083174 0.478832 2.920016
v 2.822617 -0.116857 4.121799
v 3.083127 0.478832 2.920016
v 3.377681 -1.447385 -0.303982
v -3.377729 -1.447385 -0.303982
v -4.358137 0.169366 -1.613117
v 3.528819 -1.773302 -3.040732
v -3.528867 -1.773302 -3.040732
v 3.628212 -1.400685 -0.241609
v 3.779349 -1.726601 -2.978359
v -3.628259 -1.400685 -0.241609
v -3.779397 -1.726601 -2.978359
v -4.608667 0.216067 -1.550744
v -3.009654 -0.629128 2.857642
v 2.697352 -0.140207 4.090612
v 3.009606 -0.629128 2.857642
v -3.260184 -0.582427 2.920016
v -2.822665 -0.116857 4.121799
v 3.260136 -0.582427 2.920016
v 0.234940 1.851939 -0.873600
v -0.234987 1.851939 -0.873600
v 0.242797 2.080986 -2.669383
v -0.242844 2.080986 -2.669383
v 0.184017 2.140178 -1.460626
v 0.084146 2.293165 -2.946729
v -0.184064 2.140178 -1.460626
v -0.084193 2.293165 -2.946729
v -0.000024 2.591805 -2.259061
v -0.000024 2.744792 -3.848979
v -0.000024 1.415024 1.254897
v -0.000024 1.795913 0.330227
v 0.327644 1.672834 -0.895775
v -0.327692 1.672834 -0.895775
v 0.242797 1.901881 -2.691557
v -0.242844 1.901881 -2.691557
v -0.000024 1.128700 1.535069
v -0.110405 -1.842364 0.295570
v -1.040126 0.177306 -1.717866
v 0.369712 1.067863 -1.796356
v -0.369759 1.067863 -1.796356
v -0.000024 0.622585 -8.089790
v -0.000024 1.636402 0.624186
v 0.912501 0.231923 -2.499437
v 0.326198 1.015459 -2.537026
v -0.326245 1.015459 -2.537026
v -0.912548 0.231923 -2.499437
v 0.247512 0.920695 -3.876386
v 0.687739 0.328146 -3.876386
v -0.247559 0.920695 -3.876387
v -0.687786 0.328146 -3.876386
v 2.512022 0.248738 -3.193531
v 2.567654 0.165802 -5.061786
v 2.567654 0.165802 -5.061786
v 2.567654 0.165802 -5.061786
v 2.619334 0.248738 -3.193531
v -2.512069 0.248738 -3.193531
v -2.567702 0.165802 -5.061786
v -2.567702 0.165802 -5.061786
v -2.567702 0.165802 -5.061786
v -2.642308 0.061957 -2.722535
v -2.669880 0.023580 -1.858038
v -2.669880 0.023580 -1.858038
v -2.669880 0.023580 -1.858038
v -2.669880 0.023580 -1.858038
v -2.619382 0.248738 -3.193531
v 0.101285 -1.525525 -1.896945
v -0.000424 -1.645157 -4.700767
v -0.000424 -1.645157 -4.700767
v -0.000424 -1.645157 -4.700767
v -0.103363 -1.526582 -1.896945
v 2.512022 0.082866 -3.193530
v 2.497996 0.061957 -2.722534
v 0.065011 -1.759691 -1.782001
v 0.075422 -1.777915 -1.317611
v 0.167494 -1.447650 -0.071766
v 0.167494 -1.447650 -0.071766
v 0.167494 -1.447650 -0.071766
v 0.167494 -1.447650 -0.071766
v 0.116147 -1.508044 -1.487235
v -2.512069 0.082866 -3.193530
v -2.498044 0.061957 -2.722534
v -0.064673 -1.760361 -1.782002
v -0.074895 -1.778691 -1.317611
v 2.627239 0.082866 -3.193531
v 2.642261 0.061957 -2.722535
v -2.627287 0.082866 -3.193531
v -2.632411 0.269646 -2.722535
v -0.118405 -1.509256 -1.487235
v 2.497996 0.269646 -2.722534
v -2.498044 0.269646 -2.722535
v 2.632363 0.269646 -2.722534
v 2.259882 0.431475 -0.908681
v 2.259882 0.722832 -2.554405
v 2.259882 0.722832 -2.554405
v 2.259882 -0.254301 -2.554405
v 2.817268 0.722832 -2.554405
v 2.817268 0.722832 -2.554405
v 2.951310 -0.254301 -2.554405
v 2.642420 0.431475 -0.908681
v 2.259882 -0.581690 -0.915659
v 2.195801 -0.485744 0.327458
v 2.195801 -0.485744 0.327458
v 2.259882 -0.476183 -2.444423
v 2.259882 -0.476183 -2.444423
v 2.951310 -0.476183 -2.444423
v 2.951310 -0.476183 -2.444423
v 2.827675 -0.581690 -0.915659
v 2.395463 0.519321 -2.554405
v 2.395463 0.519321 -2.554405
v 2.395463 -0.187717 -2.554405
v 2.395463 -0.187717 -2.554405
v 2.756692 -0.187717 -2.554405
v 2.756692 -0.187717 -2.554405
v 2.722998 0.519321 -2.554405
v 2.722998 0.519321 -2.554405
v 2.472253 0.308023 -1.858038
v 2.472253 0.308023 -1.858038
v 2.472253 0.308023 -1.858038
v 2.472253 0.308023 -1.858038
v 2.656277 0.308023 -1.858038
v 2.656277 0.308023 -1.858038
v 2.656277 0.308023 -1.858038
v 2.656277 0.308023 -1.858038
v 2.669833 0.023580 -1.858038
v 2.669833 0.023580 -1.858038
v 2.669833 0.023580 -1.858038
v 2.669833 0.023580 -1.858038
v 2.195801 -0.367394 0.327458
v 2.195801 0.263770 0.327458
v 2.195801 0.263770 0.327458
v 2.192805 0.263770 0.327458
v 2.192805 0.263770 0.327458
v 2.262884 -0.367394 0.327458
v 2.262884 -0.485744 0.327458
v 2.262884 -0.485744 0.327458
v 2.472253 0.023580 -1.858038
v 2.472253 0.023580 -1.858038
v 2.472253 0.023580 -1.858038
v 2.472253 0.023580 -1.858038
v -2.259930 0.431475 -0.908681
v -2.259930 0.722832 -2.554405
v -2.259930 0.722832 -2.554405
v -2.259930 -0.254301 -2.554405
v -2.817315 0.722832 -2.554405
v -2.817315 0.722832 -2.554405
v -2.951357 -0.254301 -2.554405
v -2.642467 0.431475 -0.908681
v -2.259930 -0.581690 -0.915659
v -2.195849 -0.485744 0.327458
v -2.195849 -0.485744 0.327458
v -2.259930 -0.476183 -2.444423
v -2.259930 -0.476183 -2.444423
v -2.951357 -0.476183 -2.444423
v -2.951357 -0.476183 -2.444423
v -2.827723 -0.581690 -0.915659
v -2.395511 0.519321 -2.554405
v -2.395511 0.519321 -2.554405
v -2.395511 -0.187717 -2.554405
v -2.395511 -0.187717 -2.554405
v -2.756740 -0.187717 -2.554405
v -2.756740 -0.187717 -2.554405
v -2.723045 0.519321 -2.554405
v -2.723045 0.519321 -2.554405
v -2.472301 0.308023 -1.858038
v -2.472301 0.308023 -1.858038
v -2.472301 0.308023 -1.858038
v -2.472301 0.308023 -1.858038
v -2.656325 0.308023 -1.858038
v -2.656325 0.308023 -1.858038
v -2.656325 0.308023 -1.858038
v -2.656325 0.308023 -1.858038
v -2.195849 -0.367394 0.327458
v -2.195849 0.263770 0.327458
v -2.195849 0.263770 0.327458
v -2.192853 0.263770 0.327458
v -2.192853 0.263770 0.327458
v -2.262932 -0.367394 0.327458
v -2.262932 -0.485744 0.327458
v -2.262932 -0.485744 0.327458
v -2.472301 0.023580 -1.858038
v -2.472301 0.023580 -1.858038
v -2.472301 0.023580 -1.858038
v -2.472301 0.023580 -1.858038
v -0.443375 -1.226596 -1.556085
v -0.443375 -1.226596 -1.556085
v -0.702844 -1.231552 3.402621
v -0.702844 -1.231552 3.402621
v 0.697688 -1.224320 3.402621
v 0.697688 -1.224320 3.402621
v 0.438217 -1.222043 -1.556085
v 0.438217 -1.222043 -1.556085
v -0.130231 -2.507836 0.454404
v -0.318469 -1.611979 3.402621
v -0.318469 -1.611979 3.402621
v 0.138286 -2.506450 0.454404
v 0.317262 -1.608696 3.402621
v 0.317262 -1.608696 3.402621
v -0.002067 -1.211187 7.031657
v -0.002067 -1.211187 7.031657
v 0.000781 -1.878473 3.849397
v 0.004612 -2.620397 0.643111
v -0.316134 -2.064019 -0.776665
v -0.316134 -2.064019 -0.776665
v -0.316134 -2.064019 -0.776665
v 0.319596 -2.060737 -0.776665
v 0.319596 -2.060737 -0.776665
v 0.319596 -2.060737 -0.776665
v 0.004222 -2.544894 -1.232210
v 0.004222 -2.544894 -1.232210
v 0.250033 -1.350567 -1.440325
v 0.250033 -1.350567 -1.440325
v -0.253910 -1.353169 -1.440325
v -0.253910 -1.353169 -1.440325
v -0.164466 -1.939300 -0.892425
v -0.164466 -1.939300 -0.892425
v 0.166647 -1.937590 -0.892425
v 0.166647 -1.937590 -0.892425
v -0.170372 -1.449395 -0.071766
v -0.170372 -1.449395 -0.071766
v -0.170372 -1.449395 -0.071766
v -0.170372 -1.449395 -0.071766
v 0.111588 -1.841217 0.295570
v 0.111588 -1.841217 0.295570
v 0.111588 -1.841217 0.295570
v 0.111588 -1.841217 0.295570
v -0.582899 0.020478 6.796055
v -0.422390 0.715285 5.255337
v 2.262054 -0.612382 4.343865
v 2.810283 -0.612382 1.607952
v 2.810283 -0.612382 1.607952
v -2.810330 -0.612382 1.607952
v -2.810330 -0.612382 1.607952
v -2.262102 -0.612382 4.343865
v 0.422738 0.715392 5.255238
v 0.582852 0.020478 6.796055
v -0.278634 -0.851155 9.707112
v -0.278634 -0.851155 9.707112
v -0.278634 -0.851155 9.707112
v 0.278587 -0.851155 9.707112
v 0.278587 -0.851155 9.707112
v 0.278587 -0.851155 9.707112
v 1.214812 1.588896 0.278344
v 1.214812 1.588896 0.278344
v 0.555571 1.981320 -2.745314
v 0.555571 1.981320 -2.745314
v 0.615398 -0.060290 7.031627
v -0.648021 1.273807 2.507706
v 0.647578 1.273970 2.507553
v 0.855828 1.341544 0.815835
v -0.855876 1.341544 0.815835
v -1.214859 1.588896 0.278344
v -1.214859 1.588896 0.278344
v -0.903663 1.374471 0.706757
v -0.615445 -0.060290 7.031627
v 0.903616 1.374471 0.706757
v -0.373688 -1.224320 7.530723
v -0.555619 1.981320 -2.745314
v -0.555619 1.981320 -2.745314
v -2.810330 -0.612382 -2.254663
v -2.810330 -0.612382 -2.254663
v -2.810330 -0.612382 -2.254663
v 2.810283 -0.612382 -2.254663
v 2.810283 -0.612382 -2.254663
v 2.810283 -0.612382 -2.254663
v 2.017175 -0.258577 -2.461644
v 2.017175 -0.258577 -2.461644
v 2.017175 -0.258577 -2.461644
v -2.017222 -0.258577 -2.461644
v -2.017222 -0.258577 -2.461644
v -2.017222 -0.258577 -2.461644
v 0.343723 1.572218 -2.719739
v 0.343723 1.572218 -2.719739
v -0.343770 1.572218 -2.719739
v -0.343770 1.572218 -2.719739
v 1.040079 0.177306 -1.717866
v 1.040079 0.177306 -1.717866
v 1.040079 0.177306 -1.717866
v 1.040079 0.177306 -1.717866
v 2.913748 1.334127 -0.303982
v 2.950328 1.695035 -3.040732
v 2.950328 1.695035 -3.040732
v 4.358089 0.169366 -1.613117
v 4.358089 0.169366 -1.613117
v 4.358089 0.169366 -1.613117
v -2.950375 1.695035 -3.040732
v -2.950375 1.695035 -3.040732
v -2.913795 1.334127 -0.303982
v 3.961035 0.095353 0.574852
v 3.164278 1.380828 -0.241609
v 3.200858 1.741736 -2.978359
v 3.200858 1.741736 -2.978359
v 4.608619 0.216067 -1.550744
v 4.608619 0.216067 -1.550744
v 4.608619 0.216067 -1.550744
v -3.200906 1.741736 -2.978359
v -3.200906 1.741736 -2.978359
v -3.164325 1.380828 -0.241609
v 4.211565 0.142053 0.637225
v 4.211565 0.142053 0.637225
v -2.832644 0.432131 2.857642
v -2.697400 -0.140207 4.090612
v -2.697400 -0.140207 4.090612
v -2.697400 -0.140207 4.090612
v 2.822617 -0.116857 4.121799
v 2.822617 -0.116857 4.121799
v 3.083127 0.478832 2.920016
v 3.083127 0.478832 2.920016
v -3.083174 0.478832 2.920016
v -3.083174 0.478832 2.920016
v 2.832596 0.432131 2.857642
v -3.961082 0.095352 0.574851
v -4.211613 0.142053 0.637225
v -4.211613 0.142053 0.637225
v 3.377681 -1.447385 -0.303982
v 3.528819 -1.773302 -3.040732
v 3.528819 -1.773302 -3.040732
v -3.528867 -1.773302 -3.040732
v -3.528867 -1.773302 -3.040732
v -4.358137 0.169366 -1.613117
v -4.358137 0.169366 -1.613117
v -4.358137 0.169366 -1.613117
v -3.377729 -1.447385 -0.303982
v 3.628212 -1.400685 -0.241609
v 3.779349 -1.726601 -2.978359
v 3.779349 -1.726601 -2.978359
v -3.779397 -1.726601 -2.978359
v -3.779397 -1.726601 -2.978359
v -4.608667 0.216067 -1.550744
v -4.608667 0.216067 -1.550744
v -4.608667 0.216067 -1.550744
v -3.628259 -1.400685 -0.241609
v 2.697352 -0.140207 4.090612
v 2.697352 -0.140207 4.090612
v 2.697352 -0.140207 4.090612
v 3.009606 -0.629128 2.857642
v -3.260184 -0.582427 2.920016
v -3.260184 -0.582427 2.920016
v -2.822665 -0.116857 4.121799
v -2.822665 -0.116857 4.121799
v 3.260136 -0.582427 2.920016
v 3.260136 -0.582427 2.920016
v -3.009654 -0.629128 2.857642
v 1.983346 -1.224320 4.275303
v 2.524102 -1.224320 0.917932
v -2.524149 -1.224320 0.917932
v -1.983393 -1.224320 4.275303
v 0.373641 -1.224320 7.530723
v 2.524102 -1.224320 -1.928206
v 2.524102 -1.224320 -1.928206
v -2.524149 -1.224320 -1.928206
v -2.524149 -1.224320 -1.928206
v 0.242797 2.080986 -2.669383
v 0.242797 2.080986 -2.669383
v -0.242844 2.080986 -2.669383
v -0.242844 2.080986 -2.669383
v 0.327644 1.672834 -0.895775
v 0.242797 1.901881 -2.691557
v 0.242797 1.901881 -2.691557
v -0.000024 1.636402 0.624186
v -0.000024 1.795913 0.330227
v -0.000024 2.591805 -2.259061
v -0.000024 1.128700 1.535069
v -0.000024 1.128700 1.535069
v -0.327692 1.672834 -0.895775
v -0.242844 1.901881 -2.691557
v -0.242844 1.901881 -2.691557
v -0.000024 1.415024 1.254897
v 0.369712 1.067863 -1.796356
v 0.369712 1.067863 -1.796356
v 0.369712 1.067863 -1.796356
v 0.369712 1.067863 -1.796356
v -0.369759 1.067863 -1.796356
v -0.369759 1.067863 -1.796356
v -0.369759 1.067863 -1.796356
v -0.369759 1.067863 -1.796356
v -1.040126 0.177306 -1.717866
v -1.040126 0.177306 -1.717866
v -1.040126 0.177306 -1.717866
v -1.040126 0.177306 -1.717866
v -0.326245 1.015459 -2.537026
v 0.247512 0.920695 -3.876386
v -0.000024 0.622585 -8.089790
v -0.000024 0.622585 -8.089790
v -0.000024 0.622585 -8.089790
v -0.687786 0.328146 -3.876386
v -0.110405 -1.842364 0.295570
v -0.110405 -1.842364 0.295570
v -0.110405 -1.842364 0.295570
v -0.110405 -1.842364 0.295570
v 0.912501 0.231923 -2.499437
v -0.084193 2.293165 -2.946729
v 0.084146 2.293165 -2.946729
v 0.687739 0.328146 -3.876386
v 0.326198 1.015459 -2.537026
v -0.247559 0.920695 -3.876387
v -0.912548 0.231923 -2.499437
v -0.000024 2.744792 -3.848979
v -0.000024 2.744792 -3.848979
s 1
f 280 6 300
f 301 247 288
f 284 251 281
f 285 14 16
f 243 328 344
f 222 345 223
f 15 332 329
f 333 17 226
f 382 245 550
f 237 11 383
f 551 236 386
f 240 7 9
f 253 23 251
f 252 242 218
f 249 27 227
f 250 244 245
f 13 235 236
f 234 246 247
f 16 29 28
f 10 248 19
f 8 21 17
f 11 228 22
f 9 26 20
f 12 24 6
f 218 242 219
f 244 232 230
f 246 233 216
f 19 248 221
f 22 228 229
f 24 213 214
f 23 217 215
f 227 27 220
f 235 25 231
f 28 29 1
f 21 18 3
f 20 26 5
f 254 257 30
f 277 286 283
f 44 261 34
f 34 297 269
f 34 268 44
f 256 35 258
f 265 41 39
f 30 263 49
f 260 266 43
f 30 38 262
f 270 43 42
f 274 43 272
f 270 45 276
f 276 260 274
f 298 282 287
f 273 47 36
f 37 279 271
f 33 55 32
f 295 291 290
f 290 296 295
f 254 30 49
f 39 54 53
f 35 292 294
f 261 52 34
f 50 254 49
f 305 302 56
f 325 224 323
f 70 309 307
f 341 60 317
f 316 60 70
f 61 304 306
f 313 67 315
f 56 311 310
f 314 308 69
f 56 64 305
f 318 69 320
f 69 322 320
f 71 318 324
f 308 324 322
f 342 330 326
f 2 321 62
f 327 63 319
f 80 59 58
f 339 335 337
f 340 334 339
f 302 74 56
f 65 79 67
f 61 336 57
f 77 309 60
f 75 74 302
f 350 346 348
f 93 86 371
f 372 380 374
f 350 348 360
f 358 351 87
f 362 358 87
f 356 90 361
f 365 356 349
f 358 86 93
f 359 364 367
f 368 353 82
f 89 354 355
f 356 363 90
f 363 85 370
f 354 357 94
f 373 347 95
f 378 366 376
f 373 369 378
f 375 366 347
f 239 548 381
f 377 99 549
f 92 384 379
f 91 4 84
f 117 409 121
f 107 418 399
f 106 396 397
f 120 389 118
f 115 395 116
f 412 410 411
f 102 103 410
f 115 414 393
f 104 106 119
f 388 101 117
f 121 409 123
f 104 119 122
f 408 390 114
f 110 134 129
f 507 510 506
f 416 401 128
f 417 413 127
f 124 405 126
f 125 395 400
f 124 390 391
f 116 388 117
f 121 116 117
f 123 115 121
f 417 412 411
f 124 122 119
f 114 119 106
f 397 114 106
f 416 120 118
f 505 133 508
f 506 508 507
f 394 132 107
f 413 406 419
f 392 129 130
f 105 509 111
f 541 201 440
f 424 513 421
f 131 423 137
f 113 420 422
f 130 426 392
f 112 108 138
f 427 421 430
f 435 407 433
f 431 141 435
f 428 407 425
f 539 429 432
f 530 436 434
f 538 145 535
f 438 144 142
f 483 449 473
f 441 444 450
f 459 492 474
f 451 454 452
f 148 453 443
f 149 458 155
f 482 158 152
f 153 472 468
f 445 154 455
f 462 501 463
f 472 466 468
f 473 449 160
f 155 462 149
f 460 451 469
f 450 496 162
f 459 474 471
f 464 473 160
f 441 450 162
f 484 481 147
f 476 446 477
f 490 493 475
f 485 456 461
f 487 166 478
f 167 489 480
f 174 168 170
f 171 497 166
f 150 172 169
f 163 498 500
f 465 499 504
f 502 494 497
f 147 176 484
f 504 173 167
f 461 503 485
f 146 178 177
f 181 165 164
f 493 179 475
f 161 176 147
f 476 178 146
f 349 356 361
f 183 528 195
f 517 188 189
f 183 522 188
f 516 187 515
f 514 186 182
f 188 522 523
f 554 190 186
f 189 523 559
f 193 186 190
f 204 192 182
f 527 518 524
f 529 195 525
f 184 197 185
f 182 196 514
f 192 194 182
f 96 97 81
f 358 98 351
f 540 552 439
f 532 542 536
f 202 208 200
f 533 205 206
f 193 182 186
f 183 529 521
f 140 112 138
f 109 113 422
f 207 212 208
f 187 553 191
f 558 555 552
f 206 210 543
f 542 209 211
f 555 547 545
f 212 557 546
f 543 210 544
f 211 209 203
f 280 12 6
f 301 234 247
f 284 253 251
f 285 289 14
f 243 252 328
f 222 10 345
f 15 249 332
f 333 8 17
f 382 250 245
f 237 241 11
f 551 13 236
f 240 387 7
f 253 217 23
f 252 243 242
f 249 15 27
f 250 232 244
f 13 25 235
f 234 233 246
f 16 14 29
f 10 222 248
f 8 18 21
f 11 241 228
f 9 7 26
f 12 213 24
f 254 255 257
f 277 275 286
f 44 259 261
f 34 52 297
f 34 269 268
f 256 31 35
f 265 267 41
f 30 262 263
f 260 40 266
f 30 257 38
f 270 272 43
f 274 260 43
f 270 42 45
f 276 45 260
f 298 278 282
f 273 299 47
f 37 48 279
f 33 46 55
f 295 293 291
f 290 264 296
f 39 41 54
f 35 31 292
f 261 51 52
f 305 303 302
f 325 331 224
f 70 60 309
f 341 77 60
f 316 317 60
f 61 57 304
f 313 65 67
f 56 74 311
f 314 66 308
f 56 310 64
f 318 68 69
f 69 308 322
f 71 68 318
f 308 71 324
f 342 225 330
f 2 343 321
f 327 73 63
f 80 72 59
f 339 334 335
f 340 312 334
f 65 78 79
f 61 338 336
f 77 76 309
f 350 352 346
f 372 238 380
f 358 362 86
f 359 88 364
f 89 357 354
f 356 85 363
f 373 375 347
f 378 369 366
f 373 95 369
f 375 376 366
f 239 385 548
f 377 83 99
f 92 199 384
f 91 100 4
f 117 101 409
f 107 132 418
f 120 103 389
f 115 393 395
f 412 102 410
f 102 389 103
f 115 415 414
f 104 396 106
f 408 402 390
f 110 403 134
f 507 512 510
f 416 398 401
f 417 404 413
f 124 391 405
f 125 116 395
f 124 114 390
f 116 125 388
f 121 115 116
f 123 415 115
f 417 127 412
f 124 126 122
f 114 124 119
f 397 408 114
f 416 128 120
f 505 509 133
f 506 505 508
f 394 131 132
f 413 404 406
f 392 110 129
f 105 133 509
f 541 537 201
f 424 511 513
f 131 394 423
f 130 136 426
f 427 424 421
f 435 141 407
f 431 139 141
f 428 433 407
f 539 437 429
f 530 534 436
f 538 143 145
f 438 531 144
f 483 447 449
f 441 442 444
f 459 457 492
f 451 460 454
f 148 153 453
f 149 448 458
f 482 491 158
f 153 148 472
f 445 151 154
f 462 470 501
f 472 495 466
f 155 470 462
f 484 479 481
f 476 146 446
f 490 488 493
f 485 486 456
f 487 171 166
f 167 173 489
f 174 175 168
f 171 502 497
f 150 159 172
f 163 156 498
f 465 180 499
f 502 467 494
f 504 499 173
f 181 157 165
f 183 517 528
f 517 183 188
f 183 521 522
f 516 553 187
f 514 554 186
f 554 560 190
f 189 188 523
f 524 526 527
f 527 519 518
f 529 183 195
f 184 520 197
f 182 194 196
f 192 198 194
f 540 558 552
f 532 556 542
f 202 207 208
f 533 135 205
f 193 204 182
f 207 557 212
f 558 547 555
f 206 205 210
f 542 556 209
