# Blender 5.0.1
# www.blender.org
mtllib denete1.mtl
o Tore
v 1.880000 0.000000 0.000000
v 1.758343 0.334250 0.000000
v 1.450297 0.512100 0.000000
v 1.100000 0.450333 0.000000
v 0.871360 0.177850 0.000000
v 0.871360 -0.177850 0.000000
v 1.100000 -0.450333 0.000000
v 1.450297 -0.512100 0.000000
v 1.758343 -0.334250 0.000000
v 1.664657 0.000000 -0.873680
v 1.556936 0.334250 -0.817143
v 1.284174 0.512100 -0.673987
v 0.974002 0.450333 -0.511195
v 0.771551 0.177850 -0.404941
v 0.771551 -0.177850 -0.404941
v 0.974002 -0.450333 -0.511195
v 1.284174 -0.512100 -0.673987
v 1.556936 -0.334250 -0.817143
v 1.067961 0.000000 -1.547210
v 0.998853 0.334250 -1.447088
v 0.823862 0.512100 -1.193571
v 0.624871 0.450333 -0.905282
v 0.494989 0.177850 -0.717115
v 0.494989 -0.177850 -0.717115
v 0.624871 -0.450333 -0.905282
v 0.823862 -0.512100 -1.193571
v 0.998853 -0.334250 -1.447088
v 0.226609 0.000000 -1.866293
v 0.211945 0.334250 -1.745523
v 0.174814 0.512100 -1.439723
v 0.132590 0.450333 -1.091980
v 0.105031 0.177850 -0.865007
v 0.105031 -0.177850 -0.865007
v 0.132590 -0.450333 -1.091980
v 0.174814 -0.512100 -1.439723
v 0.211945 -0.334250 -1.745523
v -0.666657 0.000000 -1.757831
v -0.623517 0.334250 -1.644079
v -0.514283 0.512100 -1.356051
v -0.390065 0.450333 -1.028518
v -0.308989 0.177850 -0.814736
v -0.308989 -0.177850 -0.814736
v -0.390065 -0.450333 -1.028518
v -0.514283 -0.512100 -1.356051
v -0.623517 -0.334250 -1.644079
v -1.407200 0.000000 -1.246670
v -1.316139 0.334250 -1.165997
v -1.085563 0.512100 -0.961725
v -0.823362 0.450333 -0.729435
v -0.652222 0.177850 -0.577818
v -0.652222 -0.177850 -0.577818
v -0.823362 -0.450333 -0.729435
v -1.085563 -0.512100 -0.961725
v -1.316139 -0.334250 -1.165997
v -1.825371 0.000000 -0.449913
v -1.707249 0.334250 -0.420799
v -1.408154 0.512100 -0.347079
v -1.068036 0.450333 -0.263247
v -0.846040 0.177850 -0.208530
v -0.846040 -0.177850 -0.208530
v -1.068036 -0.450333 -0.263247
v -1.408154 -0.512100 -0.347079
v -1.707249 -0.334250 -0.420799
v -1.825371 0.000000 0.449913
v -1.707249 0.334250 0.420798
v -1.408154 0.512100 0.347078
v -1.068036 0.450333 0.263247
v -0.846040 0.177850 0.208530
v -0.846040 -0.177850 0.208530
v -1.068036 -0.450333 0.263247
v -1.408154 -0.512100 0.347078
v -1.707249 -0.334250 0.420798
v -1.407200 0.000000 1.246670
v -1.316139 0.334250 1.165997
v -1.085563 0.512100 0.961725
v -0.823362 0.450333 0.729435
v -0.652222 0.177850 0.577818
v -0.652222 -0.177850 0.577818
v -0.823362 -0.450333 0.729435
v -1.085563 -0.512100 0.961725
v -1.316139 -0.334250 1.165997
v -0.666657 0.000000 1.757831
v -0.623517 0.334250 1.644079
v -0.514283 0.512100 1.356051
v -0.390065 0.450333 1.028518
v -0.308989 0.177850 0.814736
v -0.308989 -0.177850 0.814736
v -0.390065 -0.450333 1.028518
v -0.514283 -0.512100 1.356051
v -0.623517 -0.334250 1.644079
v 0.226609 0.000000 1.866293
v 0.211945 0.334250 1.745523
v 0.174814 0.512100 1.439723
v 0.132590 0.450333 1.091980
v 0.105031 0.177850 0.865007
v 0.105031 -0.177850 0.865007
v 0.132590 -0.450333 1.091980
v 0.174814 -0.512100 1.439723
v 0.211945 -0.334250 1.745523
v 1.067961 0.000000 1.547210
v 0.998852 0.334250 1.447089
v 0.823862 0.512100 1.193572
v 0.624871 0.450333 0.905283
v 0.494988 0.177850 0.717115
v 0.494988 -0.177850 0.717115
v 0.624871 -0.450333 0.905283
v 0.823862 -0.512100 1.193572
v 0.998852 -0.334250 1.447089
v 1.664657 0.000000 0.873680
v 1.556935 0.334250 0.817143
v 1.284174 0.512100 0.673987
v 0.974001 0.450333 0.511196
v 0.771551 0.177850 0.404941
v 0.771551 -0.177850 0.404941
v 0.974001 -0.450333 0.511196
v 1.284174 -0.512100 0.673987
v 1.556935 -0.334250 0.817143
s 0
f 1 10 11 2
f 2 11 12 3
f 3 12 13 4
f 4 13 14 5
f 5 14 15 6
f 6 15 16 7
f 7 16 17 8
f 8 17 18 9
f 9 18 10 1
f 10 19 20 11
f 11 20 21 12
f 12 21 22 13
f 13 22 23 14
f 14 23 24 15
f 15 24 25 16
f 16 25 26 17
f 17 26 27 18
f 18 27 19 10
f 19 28 29 20
f 20 29 30 21
f 21 30 31 22
f 22 31 32 23
f 23 32 33 24
f 24 33 34 25
f 25 34 35 26
f 26 35 36 27
f 27 36 28 19
f 28 37 38 29
f 29 38 39 30
f 30 39 40 31
f 31 40 41 32
f 32 41 42 33
f 33 42 43 34
f 34 43 44 35
f 35 44 45 36
f 36 45 37 28
f 37 46 47 38
f 38 47 48 39
f 39 48 49 40
f 40 49 50 41
f 41 50 51 42
f 42 51 52 43
f 43 52 53 44
f 44 53 54 45
f 45 54 46 37
f 46 55 56 47
f 47 56 57 48
f 48 57 58 49
f 49 58 59 50
f 50 59 60 51
f 51 60 61 52
f 52 61 62 53
f 53 62 63 54
f 54 63 55 46
f 55 64 65 56
f 56 65 66 57
f 57 66 67 58
f 58 67 68 59
f 59 68 69 60
f 60 69 70 61
f 61 70 71 62
f 62 71 72 63
f 63 72 64 55
f 64 73 74 65
f 65 74 75 66
f 66 75 76 67
f 67 76 77 68
f 68 77 78 69
f 69 78 79 70
f 70 79 80 71
f 71 80 81 72
f 72 81 73 64
f 73 82 83 74
f 74 83 84 75
f 75 84 85 76
f 76 85 86 77
f 77 86 87 78
f 78 87 88 79
f 79 88 89 80
f 80 89 90 81
f 81 90 82 73
f 82 91 92 83
f 83 92 93 84
f 84 93 94 85
f 85 94 95 86
f 86 95 96 87
f 87 96 97 88
f 88 97 98 89
f 89 98 99 90
f 90 99 91 82
f 91 100 101 92
f 92 101 102 93
f 93 102 103 94
f 94 103 104 95
f 95 104 105 96
f 96 105 106 97
f 97 106 107 98
f 98 107 108 99
f 99 108 100 91
f 100 109 110 101
f 101 110 111 102
f 102 111 112 103
f 103 112 113 104
f 104 113 114 105
f 105 114 115 106
f 106 115 116 107
f 107 116 117 108
f 108 117 109 100
f 109 1 2 110
f 110 2 3 111
f 111 3 4 112
f 112 4 5 113
f 113 5 6 114
f 114 6 7 115
f 115 7 8 116
f 116 8 9 117
f 117 9 1 109
